<svg width="971" height="1619" viewBox="0 0 971 1619" fill="none" xmlns="http://www.w3.org/2000/svg">
<g clip-path="url(#clip0_188_92)">
<path d="M0 0H971V1619H0V0Z" fill="white"/>
<path d="M458.285 9.0361C500.82 3.21109 580.371 44.48 604.766 79.5651C622.113 104.514 615.131 156.158 609.947 184.98C621.15 181.001 642.077 170.58 653.726 165.05C687.056 149.256 720.045 132.75 752.67 115.547C762.746 122.125 771.881 128.207 781.611 135.27C782.833 139.607 783.857 144.823 784.848 149.281L794.077 152.467L790.529 160.965L797.777 164.557L794.63 172.74C797.39 174.095 800.45 175.884 803.17 177.394C800.26 183.257 800.039 183.014 804.016 188.31C805.938 190.874 804.506 193.867 803.811 196.911L811.86 200.84L809.274 209.616L818.265 212.714C817.49 214.277 814.936 219.132 815.395 220.038C819.285 227.834 819.111 227.311 817.166 235.816L827.121 244.037L819.285 247.638L822.44 258.66C841.433 245.85 860.125 222.38 856.346 197.086C855.769 193.259 855.215 193.394 856.488 189.49C855.674 187.195 853.262 185.938 851.143 184.418L855.017 177.389L847.348 171.288L851.855 164.038L843.655 157.135C845.054 155.109 847.039 152.683 848.573 150.705C845.553 148.724 842.753 146.422 839.923 144.175L844.28 137.965C841.67 136.11 839.053 134.058 836.499 132.11C837.811 129.892 839.567 127.431 841.03 125.264L833.652 119.617L838.231 111.457L829.042 103.828C832.498 99.5867 836.04 95.4191 839.662 91.3281L862.347 87.2909C876.691 97.88 882.052 103.459 899.63 109.317C908.675 112.331 923.897 123.525 928.831 131.377C948.828 162.77 966.809 213.035 962.626 250.659C954.458 324.052 866.87 350.984 809.282 372.308C807.535 375.004 805.519 377.875 803.55 380.412C782.35 407.622 735.173 419.482 706.726 397.325L671.89 412.695C700.025 435.531 736.905 452.6 757.34 483.639C759.881 487.498 768.168 520.798 769.826 526.977C776.804 552.44 783.361 578.014 789.496 603.691C793.911 622.422 798.979 641.572 799.058 660.877C799.106 674.435 796.512 685.181 799.786 698.605C799.24 700.659 798.038 704.931 796.512 706.417C779.558 722.927 745.29 755.154 722.054 758.154C712.724 771.197 698.459 769.64 684.355 767.182C680.476 773.026 679.717 773.625 673.236 776.466C671.068 795.935 669.527 815.5 667.434 834.963C663.459 871.944 670.015 909.296 670.401 946.364C670.52 957.803 670.649 969.313 671.205 980.744C683.735 990.009 698.186 1001.22 710.078 1011.23L694.297 1118.04C688.967 1122.07 676.051 1129.54 672.587 1134.8C671.555 1136.37 679.359 1142.06 681.784 1146.32C695.196 1169.91 709.371 1194.57 718.632 1220.09C724.258 1235.59 718.567 1241.64 718.174 1255.29C718.065 1259.11 720.606 1277.42 721.189 1282.21C725.423 1319.15 730.291 1356.02 735.791 1392.78C739.041 1414.4 741.834 1439.61 749.52 1459.99C758.658 1484.22 774.24 1505.06 784.486 1528.63C790.914 1543.41 794.978 1558.95 788.645 1574.61C783.356 1587.69 772.184 1596.64 759.388 1601.99C730.995 1613.85 647.708 1615.21 619.422 1603.28C611.451 1599.92 604.852 1594.85 601.62 1586.6C592.652 1563.73 610.011 1529.95 619.296 1509.03C621.454 1504.17 624.34 1498.62 624.346 1493.2C624.374 1471.65 595.186 1401.19 585.932 1377.17L561.084 1313.57C550.609 1286.67 544.263 1269.22 538.629 1240.93L538.349 1240.65C529.728 1231.8 532.112 1221.61 532.225 1208.98C508.422 1188 491.69 1171.43 471.775 1146.35C464.769 1137.53 449.628 1115.28 443.249 1108.5C446.611 1125.37 447.794 1145.03 449.192 1162.3C450.182 1174.55 451.798 1189.94 451.679 1202.04C447.487 1208.5 440.863 1216.89 436.151 1223.23C436.648 1261.25 438.643 1299.41 438.931 1337.5C439.074 1356.52 440.537 1378.46 437.716 1397.27C436.643 1404.42 429.852 1415.37 426.089 1421.76C442.086 1436.63 443.581 1446.01 442.995 1467.35C442.635 1480.44 440.944 1491.98 438.924 1504.83C417.463 1510.23 392.307 1515.83 371.286 1522.51C327.365 1537.02 291.222 1549.43 244.044 1551.8C207.613 1553.62 168.858 1516.97 167.04 1481.1C165.258 1445.93 230.474 1441.34 253.383 1431.98C266.423 1426.65 281.27 1412.82 292.159 1402.29L288.486 1269.63C287.958 1251.24 286.451 1229.8 287.445 1211.51C287.696 1206.9 294.535 1195.41 297.179 1190.64C294.091 1186.8 290.573 1183.32 287.468 1179.4C278.889 1168.56 286.079 1151.83 288.293 1138.44C279.494 1129.47 269.55 1120.42 260.473 1111.38L250.516 1018.07C256.464 1012.06 265.187 1002.82 270.294 996.397C270.811 952.095 276.592 898.324 280.677 853.517C285.714 798.267 289.673 741.818 295.179 686.779C293.307 685.339 291.153 683.465 289.314 681.939C268.961 691.537 246.326 698.452 224.463 703.593C217.59 722.646 209.515 724.476 190.519 720.216C168.542 715.287 132.36 699.489 121.606 678.352C100.365 636.608 109.832 574.423 120.842 530.975C100.763 541.234 68.9839 557.219 46.6632 545.581C14.0738 528.59 -1.1977 478.35 15.3325 445.412C28.6506 418.875 51.324 411.238 77.6868 402.457C88.783 398.823 99.8325 395.045 110.831 391.125C116.386 373.444 118.938 367.091 138.506 366.878C143.076 359.821 155.128 348.363 163.081 345.181C169.257 342.71 172.937 343.629 178.763 346.057C185.798 326.339 200.51 314.722 222.632 320.308C233.656 323.091 246.004 331.931 255.697 338.169C264.801 333.775 280.8 327.956 290.565 324.045C313.019 315.174 335.365 306.032 357.599 296.622C350.34 267.166 347.654 245.518 358.64 216.818C355.21 207.15 350.962 193.826 350.005 183.844C321.917 172.679 291.701 154.645 290.289 120.104C288.516 76.6725 344.26 67.0841 377.375 65.5054C379.987 55.2535 384.013 41.3289 391.027 33.4081C406.391 16.0569 436.485 10.8051 458.285 9.0361Z" fill="#D6E2F3"/>
<path d="M530.612 750.441C546.041 754.921 568.851 760.196 582.175 767.68C582.188 767.688 607.42 798.756 608.096 799.942L613.901 808.076C625.469 821.982 637.194 835.761 649.075 849.397C650.227 884.86 651.577 920.323 653.124 955.771C653.684 970.719 654.679 987.66 654.64 1002.48L641.356 1002.4C625.026 1001.64 576.772 981.21 558.343 974.301C559.691 986.554 559.774 998.198 561.416 1010.41C565.124 1037.99 575.314 1062.06 583.581 1088.14C583.809 1062.34 579.191 1025.79 577.861 998.696C587.448 1002.15 603.206 1007.31 611.982 1011.32C635.359 1019.79 653.41 1020.41 678.405 1016.47C680.49 1016.4 683.835 1016.39 685.797 1016.14C687.886 1016.37 690.21 1016.12 691.491 1017.99C687.138 1047.95 681.892 1079.29 678.131 1109.15C671.543 1113.69 661.75 1120.89 655.078 1124.74C652.736 1126.88 649.963 1128.68 647.347 1130.5C643.233 1128.82 640.984 1128.05 637.421 1125.46C621.711 1118.26 598.053 1106.51 584.413 1095.84C590.686 1114.89 600.564 1121.16 616.547 1132.06C619.565 1134.11 624.838 1137.65 627.262 1140.26C634.694 1142.97 641.745 1146.16 648.97 1149.35L658.4 1143.08C658.862 1148.44 660.74 1174.56 662.1 1177.85L668.249 1151.05C673.483 1160.04 680.832 1172.29 685.272 1181.61C687.672 1184.92 691.005 1193.01 692.908 1197.1C703.332 1214.11 716.468 1243.31 693.576 1256.31C677.076 1265.67 647.096 1254.8 629.282 1250.31C601.561 1243.46 573.934 1236.23 546.407 1228.63C546.267 1219.74 546.204 1210.84 546.22 1201.95C510.647 1173.05 487.125 1150.61 469.54 1107.65C475.824 1107.12 482.109 1107.01 488.414 1106.82C476.608 1099.22 442.032 1080.11 434.912 1071.47C427.934 1069.17 410.787 1057.77 404.346 1053.58L366.195 1028.65C366.031 1028.39 365.866 1028.14 365.703 1027.88C361.421 996.641 357.531 936.347 364.309 907.667C374.727 863.587 403.771 867.5 435.916 859.761C453.255 855.761 469.797 848.876 484.849 839.389C498.832 833.5 516.653 835.689 527.159 819.697C528.083 802.725 529.524 784.395 529.871 767.56C529.985 761.849 530.232 756.141 530.612 750.441Z" fill="#EBF1FC"/>
<path d="M434.912 1071.47C456.871 1080.58 479.86 1094.25 500.966 1105.19C523.091 1116.66 534.452 1148.98 542.707 1171.02C547.309 1183.31 569.373 1195.47 580.957 1200.37C601.486 1209.06 690.317 1236.3 692.908 1197.1C703.332 1214.11 716.467 1243.31 693.575 1256.31C677.076 1265.67 647.095 1254.8 629.282 1250.31C601.56 1243.46 573.934 1236.23 546.407 1228.63C546.266 1219.74 546.204 1210.84 546.22 1201.95C510.647 1173.06 487.125 1150.61 469.54 1107.66C475.824 1107.13 482.109 1107.01 488.414 1106.82C476.608 1099.22 442.032 1080.11 434.912 1071.47Z" fill="#E2EAF8"/>
<path d="M637.421 1125.46C635.58 1122.36 629.299 1116.25 626.759 1113.93C607.451 1096.34 606.473 1089.64 605.18 1063.88C604.725 1054.82 606.642 1016.99 611.982 1011.32C635.359 1019.79 653.41 1020.41 678.405 1016.47C680.49 1016.4 683.835 1016.39 685.797 1016.14C687.886 1016.37 690.209 1016.12 691.491 1017.99C687.138 1047.95 681.892 1079.29 678.131 1109.15C671.543 1113.7 661.75 1120.89 655.078 1124.74C652.736 1126.88 649.963 1128.68 647.347 1130.5C643.233 1128.82 640.984 1128.05 637.421 1125.46Z" fill="#EBF1FC"/>
<path d="M685.797 1016.14C687.887 1016.37 690.21 1016.12 691.491 1017.99C687.139 1047.95 681.892 1079.29 678.131 1109.15C671.543 1113.7 661.75 1120.89 655.078 1124.74C655.373 1120.37 668.637 1109.36 672.55 1105.77C674.306 1098.64 676.903 1079.52 678 1071.42C680.079 1056.05 685.712 1030.67 685.797 1016.14Z" fill="#FEFFFF"/>
<path d="M528.722 986.388C537.856 982.135 548.794 978.522 558.343 974.301C559.691 986.554 559.774 998.198 561.416 1010.41C565.124 1037.99 575.313 1062.07 583.58 1088.14C583.809 1062.34 579.19 1025.79 577.86 998.696C587.448 1002.15 603.206 1007.31 611.982 1011.32C606.642 1016.99 604.725 1054.82 605.18 1063.88C606.472 1089.64 607.451 1096.34 626.759 1113.93C629.299 1116.25 635.58 1122.36 637.421 1125.46C621.711 1118.26 598.053 1106.51 584.413 1095.84C590.686 1114.89 600.564 1121.16 616.547 1132.06C619.565 1134.11 624.838 1137.65 627.262 1140.26C615.05 1136.97 577.673 1120.1 569.352 1110.77C549.836 1088.89 536.168 1044.69 530.415 1015.76C528.687 1007.08 528.709 994.941 528.722 986.388Z" fill="#E2EAF8"/>
<path d="M641.356 1002.4C640.368 999.85 639.752 981.178 639.584 977.518L636.181 883.872C635.79 875.113 635.917 862.346 635.067 854.148C634.232 846.085 612.917 815.483 612.527 808.282L613.902 808.076C625.469 821.982 637.195 835.76 649.075 849.397C650.227 884.86 651.577 920.323 653.124 955.77C653.684 970.719 654.679 987.66 654.64 1002.48L641.356 1002.4Z" fill="#FEFFFF"/>
<path d="M530.612 750.441C546.041 754.921 568.851 760.196 582.175 767.68C582.188 767.688 607.42 798.756 608.096 799.942C603.729 801.634 589.865 794.258 585.259 792.171C571.945 786.216 558.732 780.04 545.626 773.642C542.034 771.884 533.28 766.658 529.871 767.56C529.985 761.849 530.232 756.141 530.612 750.441Z" fill="#E2EAF8"/>
<path d="M668.249 1151.05C673.483 1160.04 680.832 1172.29 685.272 1181.61C682.062 1180.88 677.464 1175.81 673.536 1172.99C670.328 1174.98 665.602 1178.41 662.1 1177.85L668.249 1151.05Z" fill="#FEFFFF"/>
<path d="M352.244 548.953L350.944 556.956C351.255 569.691 352.966 583.218 358.42 594.84C343.95 607.91 315.256 628.029 334.189 648.476C335.515 649.908 337.527 652.043 339.128 653.123L338.12 652.073C338.723 688.944 339.63 725.808 340.841 762.664C341.307 780.776 340.925 806.448 342.937 823.61C361.009 841.8 407.695 841.792 432.272 842.646C449.275 843.231 468.055 839.808 484.849 839.389C469.797 848.875 453.254 855.761 435.915 859.761C403.77 867.5 374.727 863.587 364.309 907.667C357.53 936.347 361.42 996.641 365.702 1027.88C365.866 1028.14 366.03 1028.39 366.195 1028.65C365.587 1030.16 364.893 1033.06 365.82 1034.1C381.257 1051.32 409.338 1079.03 424.838 1094.86C412.758 1108.7 394.932 1128.83 384.278 1143.73C399.534 1132.83 414.939 1122.14 430.486 1111.67C431.73 1127.95 433.126 1144.22 434.672 1160.47C435.826 1172.26 437.642 1186.44 437.668 1198C425.256 1214.55 417.57 1227.81 395.912 1230.38C383.889 1231.81 359.955 1232.4 348.901 1229.78C338.287 1228.08 328.579 1226.45 318.046 1224.24C313.589 1223.06 305.411 1221.46 301.837 1219.3C298.79 1211.71 309.684 1198.09 312.653 1190.42C317.051 1179.07 319.783 1167.7 322.81 1155.95L321.859 1155.69C318.122 1160.36 316 1166.59 312.78 1171.24L307.567 1180.67C304.279 1177.43 300.182 1172.5 297.034 1168.94C299.988 1155.24 302.586 1140.48 305.408 1126.63C309.587 1122.74 313.655 1118.73 317.608 1114.61C323.072 1107.64 325.456 1102.61 329.373 1094.77L328.255 1093.58C324.438 1094.92 303.177 1113.63 295.193 1117.8C293.239 1119.58 291.92 1121.24 289.412 1121.61C288.943 1121.24 287.98 1120.6 287.704 1120.17C282.767 1116.01 275.868 1108.68 270.481 1103.8C269.854 1100.33 269.344 1096.07 269.029 1092.56C266.973 1069.58 263.481 1046.21 262.235 1023.21C265.642 1022.4 268.667 1023.02 272.101 1023.48C289.787 1025.82 294.566 1026.65 310.651 1019.12C313.915 1016.89 328.255 1009.82 332.268 1007.74C331.871 1029.06 330.168 1062.22 328.445 1083.48C337.841 1059.04 344.327 1012.55 344.023 986.506C326.036 996.475 304.596 1010.59 284.526 1011.19C283.637 1005.7 284.514 994.577 284.572 988.625C284.812 964.229 287.174 940.758 289.347 916.513L299.786 796.416L311.933 651.96C313.765 629.617 315.134 607.058 317.157 584.731C317.401 582.03 318.238 580.813 320.368 579.185C330.233 569.074 341.875 558.564 352.244 548.953Z" fill="#E2EAF8"/>
<path d="M329.373 1094.77C335.685 1088.03 350.151 1060.38 357.192 1050.17C363.988 1066.55 376.763 1103.47 377.704 1120.96C378.151 1129.26 366.671 1168.04 363.846 1178.41C359.192 1195.47 355.154 1210.85 351.475 1228.68C350.274 1229.31 350.18 1229.48 348.901 1229.78C338.287 1228.08 328.579 1226.46 318.046 1224.24C313.589 1223.06 305.411 1221.46 301.837 1219.3C298.79 1211.71 309.684 1198.09 312.653 1190.42C317.051 1179.07 319.783 1167.7 322.81 1155.95L321.859 1155.69C318.122 1160.36 316 1166.59 312.78 1171.25L307.567 1180.67C304.28 1177.43 300.182 1172.5 297.034 1168.94C299.988 1155.24 302.587 1140.48 305.409 1126.63C309.587 1122.74 313.655 1118.73 317.609 1114.61C323.072 1107.64 325.456 1102.61 329.373 1094.77Z" fill="#EBF1FC"/>
<path d="M322.81 1155.95C330.563 1166.45 321.092 1211.25 318.046 1224.24C313.589 1223.06 305.411 1221.46 301.837 1219.3C298.79 1211.71 309.684 1198.09 312.653 1190.42C317.051 1179.07 319.783 1167.7 322.81 1155.95Z" fill="#FEFFFF"/>
<path d="M317.609 1114.61C319.19 1118.46 309.161 1155.39 307.649 1162.54C310.758 1165.68 313.041 1166.73 312.78 1171.24L307.567 1180.67C304.28 1177.43 300.182 1172.5 297.034 1168.94C299.988 1155.24 302.587 1140.48 305.409 1126.63C309.587 1122.74 313.655 1118.73 317.609 1114.61Z" fill="#FEFFFF"/>
<path d="M310.651 1019.12C314.941 1023.54 315.454 1055.21 315.273 1062.49C314.901 1077.57 314.538 1091.44 304.872 1103.69C303.271 1105.72 296.096 1116.09 295.193 1117.81C293.239 1119.59 291.92 1121.24 289.412 1121.61C288.943 1121.25 287.98 1120.6 287.704 1120.17C282.767 1116.01 275.868 1108.68 270.481 1103.81C269.854 1100.33 269.344 1096.07 269.029 1092.56C266.973 1069.58 263.481 1046.22 262.235 1023.21C265.642 1022.41 268.667 1023.02 272.101 1023.48C289.787 1025.82 294.566 1026.65 310.651 1019.12Z" fill="#EBF1FC"/>
<path d="M262.235 1023.21C265.305 1023.71 267.252 1023.5 269.413 1025.2C270.939 1030.12 271.24 1038.45 271.642 1043.77C272.481 1055.03 273.403 1066.29 274.406 1077.54C274.913 1083.65 275.232 1089.33 276.15 1095.47C277.211 1102.58 288.093 1114.86 287.704 1120.17C282.767 1116.01 275.868 1108.68 270.481 1103.81C269.854 1100.33 269.344 1096.07 269.029 1092.56C266.973 1069.58 263.481 1046.22 262.235 1023.21Z" fill="#FEFFFF"/>
<path d="M352.244 548.953L350.944 556.956C348.851 566.149 346.478 574.572 343.909 583.616C336.383 580.82 332.644 580.322 324.522 579.87C322.997 579.784 321.608 579.966 320.368 579.185C330.233 569.074 341.875 558.564 352.244 548.953Z" fill="#EBF1FC"/>
<path d="M374.707 158.102C397.047 136.43 437.213 130.863 462.598 150.574C453.227 151.104 444.13 151.67 434.729 151.683C432.486 155.949 429.177 162.192 428.78 166.944C432.824 175.463 467.481 167.809 476.991 168.612C495.048 170.137 509.312 174.597 525.232 182.721C522.778 179.405 519.898 175.925 517.314 172.669C524.845 172.314 533.939 170.594 541.523 169.357C541.52 173.465 541.593 178.772 542.145 182.735C544.797 201.781 552.717 212.241 546.157 231.698C542.473 242.626 561.538 268.5 567.929 277.967C563.768 304.416 559.107 333.845 534.545 350.178C510.089 366.442 481.766 380.647 453.637 389.23C431.876 395.869 406.985 387.981 387.913 376.992C387.827 376.667 387.742 376.341 387.659 376.014C382.356 354.906 377.261 333.746 372.376 312.536C363.63 274.245 357.107 251.356 369.725 213.827C374.385 199.967 362.343 194.351 385.349 190.615C380.268 197.776 378.352 202.525 382.521 210.639L384.728 208.559C391.44 208.973 394.451 210.447 400.469 207.3L401.256 207.995C400.326 209.85 398.792 210.295 396.752 211.554L397.81 212.782C398.562 212.688 399.298 212.5 400.002 212.223C403.266 210.924 404.726 205.809 406.09 202.452C406.166 212.775 405.503 218.152 403.383 228.243C395.924 228.507 385.508 227.681 385.107 237.978C384.555 252.183 404.044 271.493 418.124 262.729C419.702 261.747 420.163 258.986 420.143 257.254L419.177 256.477C404.021 264.066 385.012 247.898 394.398 235.022C398.221 232.133 412.603 232.471 418.163 232.315C415.25 231.365 411.963 230.831 408.94 230.243C417.043 198.82 409.841 186.069 398.467 157.775C390.14 157.038 382.967 157.066 374.707 158.102Z" fill="#FEFFFF"/>
<path d="M382.521 210.64L384.728 208.56C391.441 208.974 394.452 210.448 400.47 207.301L401.257 207.996C400.327 209.85 398.792 210.296 396.752 211.555L397.811 212.783C392.247 214.582 386.942 214.472 382.521 210.64Z" fill="#E2EAF8"/>
<path d="M389.792 293.602C417.348 299.658 452.313 299.879 477.547 284.764C479.308 283.71 480.452 283.078 481.092 281.318C479.534 279.998 478.894 279.576 477.15 278.501L477.19 277.672C483.737 276.861 491.577 279.249 494.654 285.51C492.768 287.101 489.082 283.581 489.38 287.725C491.772 320.992 474.49 343.305 439.574 341.173C416.387 339.757 403.728 339.474 386.274 321.056C385.524 320.263 384.779 319.465 384.037 318.664C387.593 321.015 391.848 323.997 395.487 326.066C396.874 313.845 399.082 304.056 388.899 294.905L389.792 293.602Z" fill="#D6E2F3"/>
<path d="M483.173 287.658L484.115 287.8C485.24 289.619 484.975 294.932 485.01 297.405C484.538 297.715 484.059 298.014 483.574 298.303C462.114 311.123 429.997 314.712 405.837 308.445L404.262 307.823C402.801 305.675 402.739 301.613 402.466 298.843C428.135 300.394 460.431 301.563 483.173 287.658Z" fill="#FEFFFF"/>
<path d="M437.114 319.532C440.586 319.307 442.591 319.289 446.066 319.461L446.751 320.357L444.761 322.636C460.405 322.306 462.33 315.751 478.857 325.241C473.708 326.79 470.328 327.581 465.102 328.633C447.759 331.24 438.087 330.518 420.623 327.683C426.665 323.055 430.107 321.819 437.114 319.532Z" fill="#EBF1FC"/>
<path d="M405.093 328.033C419.889 328.184 439.581 336.336 455.991 332.632C457.92 332.196 462.511 332.1 464.495 332.466L463.218 333.503C446.294 338.346 425.3 340.196 407.982 332.466C405.687 331.442 405.661 330.135 405.093 328.033Z" fill="#FEFFFF"/>
<path d="M476.209 184.337C489.299 183.166 502.275 186.239 510.768 197.104C512.602 199.45 516.606 205.93 516.964 208.799L515.548 209.723C509.807 208.704 508.4 198.803 503.106 195.771C496.43 197.662 498.68 207.269 496.279 210.809C491.661 214.301 483.292 214.014 477.401 214.334L475.723 213.95C466.817 206.635 468.411 198.345 474.304 189.741C465.195 192.336 459.604 194.527 455.835 204.127C454.462 207.625 454.311 209.587 452.317 212.89L451.096 213.134C444.923 204.873 460.856 188.523 468.572 186.135C471.18 185.328 473.524 184.793 476.209 184.337Z" fill="#D6E2F3"/>
<path d="M487.864 192.361C495.369 193.621 495.482 198.119 491.893 203.685C488.419 202.91 486.968 202.252 485.664 198.843C485.519 195.602 486.132 194.974 487.864 192.361Z" fill="#FEFFFF"/>
<path d="M394.974 345.275C414.916 360.135 419.593 352.359 438.664 352.928L437.097 353.755C434.588 354.697 432.059 355.585 429.512 356.421C415.961 360.731 399.908 361.099 394.974 345.275Z" fill="#D6E2F3"/>
<path d="M445.354 239.504C446.434 239.74 447.505 240.017 448.563 240.334C459.917 243.809 461.962 251.719 449.368 256.613C447.333 257.069 446.981 257.108 444.898 257.124L446.621 255.489C453.731 248.876 451.18 245.435 445.354 239.504Z" fill="#D6E2F3"/>
<path d="M432.846 252.312C436.407 252.072 437.499 251.996 440.212 253.701L440.378 254.877C438.545 256.282 437.978 256.142 435.564 256.386C433.505 255.779 429.146 255.246 426.548 254.685C427.692 253.294 430.913 252.807 432.846 252.312Z" fill="#D6E2F3"/>
<path d="M388.899 294.904C386.513 294.302 380.187 292.997 378.882 291.128C382.31 291.081 386.423 292.579 389.791 293.601L388.899 294.904Z" fill="#E2EAF8"/>
<path d="M732.278 169.158C737.259 166.438 742.596 163.735 747.128 160.361C763.281 194.383 780.411 228.296 796.346 262.392L808.689 254.423C816.565 286.898 817.34 310.718 807.44 343.43C799.24 370.544 787.831 387.905 758.356 394.855C748.984 397.064 726.387 399.187 719.756 391.494C725.871 379.95 719.726 342.316 715.075 329.737C709.081 313.525 695.561 293.167 681.302 283.625C676.624 280.495 633.829 300.281 626.525 303.565C623.737 305.131 623.359 305.846 621.567 308.346C625.814 319.925 635.548 344.124 638.113 354.877C634.421 365.232 629.57 371.798 617.382 366.958C609.073 363.658 598.559 351.807 593.316 344.556C595.521 344.344 595.674 344.446 597.849 345.054C598.449 344.213 599.672 340.923 600.251 339.719C582.386 333.733 582.512 334.008 569.993 320.028C574.735 308.897 576.164 301.487 577.828 289.606C585.301 290.495 588.562 291.175 595.885 288.864C597.407 288.226 599.741 286.816 601.26 285.966C620.786 269.743 628.86 246.776 625.191 222.007C636.878 215.331 656.808 206.674 669.802 200.467C690.786 190.35 711.614 179.913 732.278 169.158Z" fill="#FEFFFF"/>
<path d="M606.488 291.983C606.813 286.05 611.237 284.09 616.356 282.294C627.985 278.214 675.07 260.492 684.538 265.987C708.039 279.626 725.618 316.691 735.298 341.049C722.652 333.019 723.45 327.246 716.786 315.157C709.23 301.453 695.098 278.041 680.896 270.807C663.803 271.351 634.467 282.671 618.106 288.646C612.213 290.504 616.485 290.506 612.495 291.789C611.611 290.808 611.153 290.31 610.149 289.408C607.504 290.277 608.481 289.687 606.488 291.983Z" fill="#D6E2F3"/>
<path d="M625.46 325.412C624.925 321.981 621.793 313.482 620.511 309.592L621.567 308.346C625.814 319.925 635.549 344.124 638.113 354.877C634.421 365.232 629.57 371.798 617.382 366.958C609.073 363.658 598.559 351.807 593.316 344.556C595.522 344.344 595.674 344.446 597.85 345.054C604.023 346.698 614.264 344.04 619.401 340.148C625.095 335.797 625.66 332.303 625.46 325.412Z" fill="#FEFFFF"/>
<path d="M606.488 291.982C608.481 289.686 607.503 290.276 610.149 289.407C611.153 290.309 611.611 290.807 612.495 291.788C616.485 290.505 612.213 290.503 618.105 288.645C616.569 293.954 621.339 303.288 626.526 303.564C623.737 305.131 623.36 305.846 621.567 308.345L620.512 309.592C621.793 313.481 624.925 321.98 625.46 325.411C625.66 332.303 625.095 335.796 619.401 340.147C614.264 344.04 604.024 346.698 597.85 345.053C598.45 344.213 599.672 340.922 600.251 339.719C605.668 338.259 615.627 337.909 617.924 331.716C621.487 322.107 609.366 302.886 606.488 291.982Z" fill="#E2EAF8"/>
<path d="M619.401 340.148L618.438 338.558C619.026 334.039 621.088 327.245 625.46 325.412C625.66 332.304 625.095 335.797 619.401 340.148Z" fill="#D6E2F3"/>
<path d="M732.594 187.473L749.652 177.639C763.639 214.218 813.165 305.251 797.018 341.789C794.353 347.82 788.331 352.209 782.917 355.64C797.967 339.947 794.915 319.233 790.219 299.853C780.796 260.991 761.963 223.341 746.151 186.955L735.324 191.947C733.167 189.697 732.912 190.177 732.594 187.473Z" fill="#D6E2F3"/>
<path d="M735.325 191.947C727.54 196.183 640.547 237.729 636.289 238.128C639.506 235.451 651.846 230.261 656.456 228.085C682.558 215.762 707.293 201.318 732.594 187.473C732.912 190.177 733.168 189.696 735.325 191.947Z" fill="#E2EAF8"/>
<path d="M696.441 470.716C707.477 470.248 715.338 470.805 726.321 472.15C731.07 476.201 743.17 485.521 745.075 490.988C749.738 504.369 753.439 519.647 757.082 533.334C763.054 555.516 768.765 577.768 774.213 600.085C779.443 621.535 784.309 639.074 785.404 661.21C751.465 602.255 714.823 588.288 651.845 566.918C646.396 565.069 625.354 558.945 621.913 556.248C621.608 550.295 619.488 538.178 618.634 531.645C616.798 539.453 614.688 546.752 612.922 554.774L605.755 558.894C603 563.289 588.733 603.147 587.38 610.189C586.942 612.467 589.389 632.445 589.865 636.37C575.971 636.394 553.213 636.721 539.982 639.466C536.549 625.01 534.526 615.819 544.396 603.334C568.571 572.758 593.781 542.903 620.837 514.819C633.874 501.288 648.164 486.973 664.644 477.846C673.78 472.818 686.151 471.436 696.441 470.716Z" fill="#FEFFFF"/>
<path d="M216.448 485.432L217.068 486.377C220.027 521.406 220.635 559.14 229.434 593.375C231.812 602.628 235.324 609.21 235.119 619.351C234.744 637.957 229.106 655.339 222.685 672.583C217.888 664.597 213.605 657.462 208.235 649.805C209.754 661.111 215.566 702.235 205.453 708.396C198.017 709.222 181.09 703.091 173.827 700.405C158.162 694.58 139.543 683.224 132.492 667.879C114.237 628.156 126.287 559.893 138.996 521.041C166.678 505.593 187.316 497.39 216.448 485.432Z" fill="#FEFFFF"/>
<path d="M398.927 580.957C418.401 579.821 468.932 617.712 483.903 632.346C487.351 635.717 494.978 652.164 498.113 657.822C496.878 651.234 488.865 628.407 494.175 624.144C500.186 625.466 526.778 645.59 530.456 651.127C538.218 665.295 535.87 687.234 536.076 702.59C536.283 717.951 530.198 727.646 522.742 739.848C514.665 737.929 506.392 736.193 499.048 732.294C510.551 716.175 512.744 710.691 508.524 691.585C488.721 766.248 471.097 713.438 434.879 696.001C432.853 695.335 432.421 695.028 430.393 695.352C429.973 698.148 433.588 703.046 435.243 705.826C422.903 711.979 410.096 718.766 396.582 721.704C387.088 716.294 381.412 710.689 374.911 702.174C390.994 691.665 411.929 679.813 428.606 669.803C406.893 674.498 396.071 680.591 375.84 689.982C366.441 680.256 362.671 670.949 374.07 660.447C387.45 648.118 403.351 637.494 418.459 627.331C391.155 634.921 386.987 644.721 365.09 654.151C355.043 649.223 347.988 642.602 341.446 633.768C347.082 620.751 385.688 588.599 398.927 580.957Z" fill="#FEFFFF"/>
<path d="M229.782 391.468C262.177 379.235 294.256 365.118 326.479 352.412C338.698 347.595 354.332 340.259 366.344 336.104C369.863 351.244 373.116 368.045 378.327 382.721C378.845 384.179 381.887 386.88 383.081 388.041C374.196 391.8 366.333 396.218 357.161 400.121C295.992 425.968 234.646 451.396 173.127 476.402C155.024 483.751 136.853 490.935 118.617 497.954C105.579 502.947 81.4545 515.708 69.8596 504.857L70.5229 503.963C77.5256 503.681 84.101 503.602 90.9668 501.862C108.004 497.545 173.901 471.787 184.059 460.727C187.375 457.117 189.456 452.524 189.221 447.562C189.01 443.094 187.038 439.343 183.772 436.331C181.571 437.726 180.623 439.571 179.629 441.979C181.739 445.652 183.5 449.005 182.268 453.404C180.496 459.726 174.043 463.183 168.611 465.918C152.186 474.187 87.6822 504.618 71.7209 499.018C69.6279 498.283 67.7359 496.759 66.1899 495.211C68.6226 491.016 68.018 494.524 70.5237 491.867L70.0648 490.641C66.1562 488.766 60.7948 490.786 57.3826 492.952C56.2567 463.141 76.5555 460.333 99.7248 450.856C111.966 445.849 124.545 441.267 136.895 436.538C141.197 434.469 142.374 435.29 147.156 431.648C148.089 429.801 147.964 430.647 147.343 428.376C145.235 427.158 144.66 426.662 142.322 426.203C151.502 421.919 157.328 423.695 167.023 422.639C170.444 422.266 172.891 420.799 176.149 420.197C180.842 417.186 181.894 415.777 184.399 410.838C192.981 411.982 196.79 411.576 205.061 410.048C206.336 408.971 216.523 405.249 218.837 404.376C225.482 399.758 226.586 398.819 229.782 391.468Z" fill="#FEFFFF"/>
<path d="M218.837 404.376C226.211 405.606 282.895 379.66 288.142 380.649C282.98 383.178 280.894 383.049 276.983 384.733C250.116 396.304 222.137 406.19 195.116 417.563C186.932 421.007 174.869 425.158 167.43 428.989L167.931 429.686C169.507 429.766 170.721 429.926 172.271 429.593L175.074 431.305C174.838 433.583 175.19 436.386 173.06 437.558C175.263 438.983 177.547 440.392 179.629 441.979C181.739 445.652 183.5 449.005 182.268 453.403C180.496 459.726 174.043 463.183 168.611 465.917C152.186 474.186 87.6822 504.618 71.7209 499.017C69.6279 498.283 67.7359 496.759 66.1899 495.211C68.6226 491.016 68.018 494.523 70.5237 491.867L70.0648 490.64C66.1562 488.766 60.7948 490.786 57.3826 492.952C56.2567 463.141 76.5555 460.333 99.7248 450.856C111.966 445.849 124.545 441.267 136.895 436.537C141.197 434.469 142.374 435.29 147.156 431.648C148.089 429.8 147.964 430.647 147.343 428.376C145.235 427.158 144.66 426.661 142.322 426.203C151.502 421.919 157.328 423.694 167.023 422.639C170.444 422.266 172.891 420.799 176.149 420.196C180.842 417.186 181.894 415.776 184.399 410.838C192.981 411.982 196.79 411.576 205.061 410.048C206.336 408.971 216.523 405.249 218.837 404.376Z" fill="#E2EAF8"/>
<path d="M143.765 469.955C150.212 467.328 160.655 462.021 166.225 457.953C175.966 450.84 165.847 444.329 166.497 438.345C168.508 436.598 167.508 437.035 170.361 436.846L173.059 437.557C175.262 438.982 177.547 440.391 179.629 441.978C181.738 445.651 183.5 449.004 182.267 453.402C180.495 459.725 174.042 463.182 168.611 465.917C152.186 474.185 87.6817 504.617 71.7204 499.017C69.6274 498.282 67.7354 496.758 66.1895 495.21C70.3369 492.952 93.0767 489.424 100.228 487.231C116.363 482.283 128.51 476.784 143.765 469.955Z" fill="#FEFFFF"/>
<path d="M205.06 410.047C201.128 412.769 180.814 420.905 176.148 420.196C180.841 417.185 181.894 415.776 184.398 410.837C192.98 411.981 196.789 411.575 205.06 410.047Z" fill="#FEFFFF"/>
<path d="M170.361 436.846C168.038 435.956 168.041 434.852 168.045 432.793C170.107 430.052 169.009 430.916 172.271 429.592L175.073 431.304C174.837 433.582 175.189 436.386 173.059 437.557L170.361 436.846Z" fill="#D6E2F3"/>
<path d="M142.022 441.62C148.278 441.447 160.745 441.48 162.967 448.559C161.971 452.714 159.031 455.068 155.545 457.22C153.452 458.489 151.337 459.72 149.201 460.912C124.841 472.553 92.0359 484.165 65.667 489.969C65.9879 478.044 67.3856 470.937 79.2563 465.767C98.7333 457.285 121.243 445.721 142.022 441.62Z" fill="#FEFFFF"/>
<path d="M175.074 431.305C178.978 433.115 180.409 433.726 183.771 436.33C181.571 437.725 180.623 439.57 179.629 441.978C177.547 440.392 175.263 438.983 173.06 437.558C175.19 436.386 174.838 433.583 175.074 431.305Z" fill="#E2EAF8"/>
<path d="M608.837 384.602C613.015 385.703 651.156 415.531 658.825 420.467C591.419 449.243 549.123 499.401 502.873 553.68C473.809 556.471 442.99 557.305 413.641 559.582C394.613 523.052 395.267 512.999 404.363 472.136C407.416 460.692 410.071 450.589 413.58 439.21C430.28 444.461 439.166 451.732 451.19 463.974C445.014 479.284 438.245 524.16 435.306 542.342C446.648 520.838 459.341 486.047 477.441 469.135C495.558 452.209 501.984 479.693 509.847 490.622L608.837 384.602Z" fill="#FEFFFF"/>
<path d="M351.958 752.841C351.887 751.97 351.823 751.098 351.766 750.225C350.349 728.702 351.257 706.466 349.814 684.868C349.505 680.234 348.257 666.117 350.985 662.996C353.876 664.5 353.528 665.837 353.065 668.982C351.473 679.811 355.507 686.617 361.415 695.853C361.072 699.704 360.218 705.089 362.399 708.486C388.241 748.729 408.855 734.73 441.837 718.887C449.656 725.434 457.881 731.479 466.463 736.988C484.743 746.728 500.372 747.084 519.762 753.64C519.602 756.47 518.993 771.176 518.154 772.969C517.78 786.27 516.256 801.674 516.197 814.228C480.641 830.244 427.594 840.79 389.7 828.22C379.453 826.805 363.143 819.445 353.83 814.987C353.291 794.243 352.326 773.593 351.958 752.841Z" fill="#EBF1FC"/>
<path d="M351.958 752.841C351.887 751.97 351.823 751.098 351.766 750.225C350.349 728.702 351.257 706.466 349.814 684.868C349.505 680.234 348.257 666.117 350.985 662.996C353.876 664.5 353.528 665.837 353.065 668.982C351.473 679.811 355.507 686.617 361.415 695.853C361.072 699.704 360.218 705.089 362.399 708.486C388.241 748.729 408.855 734.73 441.837 718.887C449.656 725.434 457.881 731.479 466.463 736.988C450.65 748.331 431.571 752.027 412.489 753.41C402.654 754.122 387.789 753.896 380.316 746.906C369.106 752.312 364.372 752.831 351.958 752.841Z" fill="#E2EAF8"/>
<path d="M510.915 799.373C511.127 790.306 506.843 764.034 510.787 758.92C513.381 759.593 515.364 759.786 517.77 760.91C519.18 763.632 518.094 768.985 518.154 772.968C517.78 786.269 516.257 801.673 516.197 814.227C480.641 830.243 427.594 840.789 389.7 828.219C392.812 826.069 420.703 828.369 427.603 827.579C449.591 825.089 494.308 813.8 510.915 799.373Z" fill="#FEFFFF"/>
<path d="M615.865 570.662C622.57 570.999 637.866 576.826 644.83 578.765C680.71 588.757 720.014 600.112 743.934 630.872C753.46 643.123 788.18 682.651 787.099 696.465C784.801 701.668 767.275 715.342 762.035 719.74C759.916 717.591 757.903 715.125 756.029 712.759C746.295 700.465 736.026 688.979 725.449 677.411C729.845 686.958 732.989 695.508 736.631 705.345C739.607 713.278 745.046 722.721 749.156 730.345C739.649 736.613 734.519 740.134 723.974 744.137C707.268 717.656 669.84 676.001 646.083 655.678C637.889 648.667 611.742 634.51 601.39 630.866C600.871 622.831 600.171 614.809 599.291 606.807C613.14 609.265 626.97 611.827 640.78 614.491C630.481 608.008 618.807 599.593 608.434 592.7C609.946 585.065 610.801 576.437 615.865 570.662Z" fill="#FEFFFF"/>
<path d="M571.501 650.92C588.165 650.127 608.889 649.055 623.689 657.407C631.065 661.569 638.223 666.3 644.571 671.925C655.886 681.952 707.288 736.928 709.64 748.656C710.072 750.815 709.579 751.411 708.353 753.018C697.527 757.815 674.833 750.338 663.291 747.68C660.406 747.016 654.52 744.908 652.068 745L653.114 746.002C658.845 751.403 665.445 756.91 671.386 762.34C651.954 765.858 625.083 769.915 605.887 762.691C599.495 760.084 593.547 755.255 587.107 752.879C571.924 747.28 556.213 742.89 540.848 737.806C545.947 726.873 549.585 717.74 550.146 705.517C550.978 687.349 550.96 670.466 546.933 652.642C554.792 651.701 563.532 651.373 571.501 650.92Z" fill="#FEFFFF"/>
<path d="M389.099 135.189C377.753 139.786 362.161 149.365 355.994 159.9C354.251 162.877 352.25 168.73 350.326 172.507C347.058 172.775 343.454 170.984 340.567 169.454C321.721 159.503 309.951 152.596 302.852 131.55C292.836 103.724 312.652 87.6689 337.668 80.7534C370.72 71.6167 407.604 73.7354 440.668 82.2158C446.204 83.6356 454.699 85.604 459.59 88.2333C502.413 103.602 532.903 121.286 563.207 155.099C549.166 158.617 535.77 160.371 521.723 162.616C496.198 166.699 491.369 160.622 474.327 143.451C471.192 141.233 460.51 130.306 455.382 126.147C431.34 106.494 400.832 98.3663 370.438 93.8635C353.937 91.4184 316.545 90.2262 312.384 112.635C311.391 117.983 311.96 129.843 315.58 134.263L316.417 134.312C316.785 130.333 318.437 121.831 321.726 120.022C339.684 110.146 376.805 123.092 388.431 134.524L389.099 135.189Z" fill="#E2EAF8"/>
<path d="M474.327 143.452C479.917 143.585 492.317 160.709 499.93 162.094C507.472 163.466 555.076 156.511 558.575 154.417L558.692 152.922C553.936 146.895 544.581 138.345 538.776 132.981L537.481 134.747C538.061 136.475 538.37 137.168 539.184 138.8C539.049 139.181 538.909 139.561 538.762 139.939C532.594 155.881 511.824 151.428 499.263 154.246C498.449 154.428 497.888 155.058 495.269 155.497C491.29 152.953 487.475 150.736 484.107 147.401L484.843 147.175C499.046 156.432 542.847 149.77 536.594 138.278C525.157 117.26 479.345 102.59 459.514 89.2383L459.59 88.2344C502.412 103.603 532.903 121.287 563.207 155.1C549.166 158.618 535.77 160.372 521.723 162.617C496.197 166.7 491.368 160.623 474.327 143.452Z" fill="#FEFFFF"/>
<path d="M450.243 17.6883C452.575 17.3244 458.87 17.1898 461.34 17.1679C486.251 16.9412 510.21 26.7263 527.837 44.3266C537.172 53.5334 543.071 62.127 545.165 75.3877C547.837 92.3047 547.564 109.212 547.67 126.28C539.911 118.839 522.206 107.537 512.784 101.747C474.411 80.5559 433.952 66.2785 389.828 65.4989C400.279 30.7811 415.017 22.0772 450.243 17.6883Z" fill="#FEFFFF"/>
<path d="M359.526 406.041C356.133 409.743 349.879 418.361 345.625 420.079C286.766 443.853 227.863 467.507 169.363 492.174C140.084 504.681 115.824 522.502 85.7387 533.688C53.5335 545.663 35.6201 529.872 24.8977 500.224C18.9004 483.642 18.9108 465.634 27.0013 449.507C40.0399 423.518 72.7608 416.591 98.4139 408.089C95.9888 421.742 99.256 423.919 110.985 429.143C97.9054 433.748 54.1273 450.16 45.6475 458.077C39.6463 463.664 36.2044 471.471 36.1278 479.668C35.8476 499.923 50.4457 517.022 63.8122 530.487C54.7231 514.852 38.9374 493.238 45.5448 473.841C50.3321 459.788 71.3007 454.931 83.7927 449.568C102.946 441.346 123.116 434.51 142.322 426.202C144.66 426.66 145.235 427.157 147.343 428.375C147.963 430.646 148.088 429.8 147.155 431.647C142.373 435.289 141.196 434.468 136.894 436.536C124.544 441.266 111.965 445.848 99.7241 450.855C76.5548 460.332 56.256 463.14 57.3819 492.951C61.7618 513.486 73.8451 519.876 93.5312 513.633C124.46 503.823 155.063 490.485 185.074 478.275L359.526 406.041Z" fill="#FEFFFF"/>
<path d="M897.282 121.475C922.553 133.896 926.87 149.892 936.754 174.336C978.314 277.159 924.712 316.057 834.088 350.209C828.315 352.565 822.377 354.576 816.486 356.643C820.748 342.693 824.03 332.3 826.299 317.812C859.739 309.079 898.073 298.818 918.457 267.39C921.984 261.96 926.372 250.732 926.515 244.316C927.408 205.003 906.612 158.848 897.282 121.475Z" fill="#E2EAF8"/>
<path d="M518.586 571.919C549.325 522.698 582.546 481.709 632.75 451.209C644.479 444.083 655.756 436.823 668.846 432.244C680.299 434.442 684.31 436.398 693.701 443.311C697.07 446.207 700.478 449.007 703.497 452.268L711.523 460.404C682.309 456.188 655.785 468.065 632.785 485.281C605.517 505.693 582.236 532.265 561.199 558.936C556.508 564.884 532.812 596.789 529.533 598.4C527.664 596.845 528.178 596.968 527.278 594.22L525.412 588.69L518.586 571.919Z" fill="#EBF1FC"/>
<path d="M518.586 571.919C549.325 522.698 582.546 481.709 632.75 451.209C644.479 444.083 655.756 436.823 668.846 432.244C680.299 434.442 684.31 436.398 693.701 443.311L693.023 443.57C687.315 445.706 680.354 446.7 674.365 448.316C666.227 450.511 658.036 453.545 650.246 456.701C601.123 476.597 553.4 525.934 531.036 573.625C528.727 578.474 526.845 583.515 525.412 588.69L518.586 571.919Z" fill="#E2EAF8"/>
<path d="M703.497 452.268L711.523 460.403C682.309 456.187 655.785 468.064 632.785 485.28C605.517 505.692 582.236 532.264 561.199 558.935C556.508 564.883 532.813 596.789 529.533 598.399C527.664 596.845 528.178 596.967 527.278 594.219C530.062 591.479 532.398 588.089 534.906 585.031C569.412 542.955 600.3 495.334 648.925 468.071C662.819 460.281 675.21 453.672 691.498 453.075C695.215 452.94 699.247 453.039 702.828 452.392L703.497 452.268Z" fill="#FEFFFF"/>
<path d="M678.402 289.332C680.501 290.592 688.243 298.274 690.101 300.361C711.703 324.613 716.753 354.981 714.936 386.371C699.259 393.792 682.788 400.97 666.929 408.112C665.909 407.917 664.957 407.909 664.8 406.438C660.454 365.779 653.847 342.483 628.932 309.168C643.265 304.291 663.911 295.15 678.402 289.332Z" fill="#EBF1FC"/>
<path d="M278.292 516.043C290.87 521.012 312.292 548.312 321.322 559.029C320.891 559.366 320.469 559.713 320.055 560.069C316.223 563.352 305.124 573.112 304.554 577.021C300.742 603.169 298.603 639.808 296.661 665.778C290.2 643.278 288.38 637.164 275.116 617.773C264.048 601.203 251.957 585.34 238.911 570.277C237.986 563.679 237.298 556.47 236.52 549.802C239.002 547.051 241.851 544.175 244.425 541.466C255.263 551.176 269.534 560.027 281.612 568.688C274.678 557.171 263.348 543.337 254.691 532.736C261.712 528.336 270.962 521.023 278.292 516.043Z" fill="#FEFFFF"/>
<path d="M578.321 356.102C582.954 358.782 597.376 371.077 601.361 374.616C585.757 390.72 570.047 406.721 554.232 422.618C539.068 437.925 524.56 451.808 511.701 469.213C510.246 466.477 508.689 463.797 507.034 461.177C502.592 454.296 497.842 450.165 489.824 448.464C477.485 451.855 470.56 458.767 461.813 467.511C467.234 458.622 479.335 437.352 485.785 430.399C501.203 413.781 529.236 398.666 548.083 384.862C555.056 379.753 569.862 371.727 575.474 366.36L578.321 356.102Z" fill="#FEFFFF"/>
<path d="M302.123 1235.28C320.682 1239.14 335.302 1242.34 354.4 1245.55C344.699 1247.85 326.488 1248.99 316.14 1249.85C316.245 1271.72 314.897 1381.49 319.048 1392.57C322.683 1402.28 335.57 1412.89 342.775 1420.44C331.266 1420.78 319.054 1421.92 307.275 1422.37C281.804 1452.67 259.623 1460.85 222.813 1467.96C198.251 1472.6 190.009 1472.28 186.681 1498.97C184.876 1494.72 182.127 1487.82 181.763 1483.5C179.522 1456.96 240.299 1454.29 258.214 1445.43C277.676 1435.82 292.143 1424.28 306.424 1407.69C306.564 1405.12 306.474 1402.85 306.424 1400.31C305.337 1345.35 302.804 1290.23 302.123 1235.28Z" fill="#FEFFFF"/>
<path d="M868.57 206.674C873.734 210.51 879.356 215.214 884.211 219.436C884.78 223.306 885.27 227.273 885.919 231.135C888.884 248.773 885.966 257.517 903.773 265.568C890.671 284.89 874.896 293.266 853.752 301.961C844.295 305.567 836.625 307.811 826.947 310.585C827.406 294.621 827.2 286.142 825.16 270.265C849.427 257.713 867.044 234.457 868.57 206.674Z" fill="#EBF1FC"/>
<path d="M329.513 439.684C329.359 441.495 286.891 499.9 281.96 506.606C268.824 504.345 246.06 525.619 235.948 534.383L234.88 533.544C232.62 516.615 232.834 496.884 230.773 479.349L329.513 439.684Z" fill="#FEFFFF"/>
<path d="M885.586 117.226L888.378 117.02C891.019 118.975 916.156 210.988 919.231 222.763C920.908 229.199 923.051 247.801 917.642 253.08C902.998 267.373 895.818 257.125 893.288 240.3C892.134 232.598 891.264 226.267 890.687 218.518L899.337 210.525L889.84 203.342L894.901 195.857L886.148 191.381L890.86 183.566L882.076 177.957L886.077 170.915L877.26 165.988C878.96 163.108 880.629 160.208 882.265 157.29L875.228 152.238L879.435 144.579C876.881 142.939 873.504 141.108 870.816 139.554L875.821 131.7C873.496 130.274 871.915 129.552 870.444 127.208C869.258 119.372 879.632 118.447 885.586 117.226Z" fill="#FEFFFF"/>
<path d="M213.369 325.233C223.013 324.851 232.287 331.249 240.169 336.185C236.817 337.635 232.748 340.024 229.514 338.999C229.303 337.429 229.264 336.372 229.216 334.787L228.496 335.074C220.37 345.743 236.414 385.235 212.058 399.374C207.594 401.393 184.521 408.388 184.918 400.134C185.763 382.573 184.489 359.373 187.341 342.295C189.326 330.406 202.962 326.217 213.369 325.233Z" fill="#FEFFFF"/>
<path d="M575.899 231.254C577.027 224.11 578 215.324 580.338 208.617C582.762 201.668 590.393 200.634 596.512 202.642C620.762 209.566 617.997 238.876 611.298 257.69C610.308 260.492 604.308 269.295 604.227 271.212C605.77 275.547 600.186 280.683 601.261 285.967C599.741 286.816 597.408 288.227 595.886 288.865C596.694 285.306 598.891 282.393 597.851 278.398C592.766 276.244 590.313 283.924 575.632 276.09C572.913 256.742 573.609 251.035 575.899 231.254Z" fill="#FEFFFF"/>
<path d="M575.899 231.254C577.174 233.772 578.238 235.297 579.804 237.591L580.637 237.781L581.69 236.688C580.549 235.625 580.375 235.798 579.966 234.492L581.204 234.833C583.811 227.409 587.078 209.498 596.943 210.031C604.758 214.14 604.53 224.173 605.004 231.737L604.402 232.41C601.688 228.466 598.755 221.296 596.329 218.718L594.72 218.585C591.488 222.184 600.07 230.163 598.464 233.259L599.008 232.681C597.833 233.164 597.068 233.5 595.915 234.086C596.068 235.44 596.182 236.495 596.226 237.874C592.945 237.285 593.184 233.232 589.758 232.203C588.299 239.723 595.349 237.026 594.769 245.361C594.341 251.51 586.107 257.861 586.27 262.742L587.479 263.661C590.037 262.619 592.607 261.413 595.3 260.913L595.736 261.478C595.098 262.597 594.424 263.453 594.256 264.652L595.78 264.201C595.961 266.437 596.434 268.171 595.274 269.942C591.841 272.239 593.289 271.951 589.783 271.538C589.129 270.3 589.179 270.948 589.395 269.613C586.734 270.011 587.603 269.516 585.77 271.229C588.739 276.066 600.318 273.633 604.227 271.212C605.77 275.547 600.186 280.683 601.261 285.966C599.741 286.816 597.408 288.226 595.886 288.864C596.694 285.306 598.891 282.393 597.851 278.398C592.766 276.243 590.313 283.923 575.632 276.089C572.913 256.742 573.609 251.035 575.899 231.254Z" fill="#EBF1FC"/>
<path d="M359.002 309.023C361.079 309.621 363.568 324.175 364.203 327.051C322.998 344.189 277.387 363.394 235.828 379.048C234.616 379.591 234.625 379.513 233.278 379.547C232.168 376.497 233.547 362.688 233.837 358.831C246.421 354.694 262.747 347.661 275.34 342.702C303.351 331.784 331.239 320.556 359.002 309.023Z" fill="#FEFFFF"/>
<path d="M610.708 197.932C650.819 178.87 690.593 159.11 730.014 138.66C734.514 143.121 739.683 149.071 744.036 153.823C741.111 155.843 731.487 160.724 730.597 161.493C694.915 177.832 657.826 196.088 622.168 212.912C618.478 206.187 616.348 203.085 610.708 197.932Z" fill="#FEFFFF"/>
<path d="M501.124 567.895L501.6 567.997C502.062 568.397 502.524 568.797 502.986 569.197C506.429 583.736 510.388 605.342 514.178 619.034C502.601 610.596 497.494 606.073 483.815 613.226C476.695 607.705 468.127 602.082 460.63 596.93C453.574 591.342 429.924 577.201 422.08 573.277C429.64 572.111 440.869 571.64 448.771 571.102L501.124 567.895Z" fill="#E2EAF8"/>
<path d="M373.306 424.496C373.02 432.787 373.004 441.084 373.256 449.376C374.489 457.413 375.075 462.558 377.101 470.483C382.857 462.97 388.117 455.526 395.027 449.074C386.891 473.291 381.937 489.771 382.097 515.192C369.836 517.042 363.292 522.94 357.23 533.647C356.481 536.628 353.593 544.323 352.474 547.54C349.002 498.972 352.154 468.543 373.306 424.496Z" fill="#EBF1FC"/>
<path d="M373.256 449.376C374.489 457.413 375.075 462.558 377.101 470.483C382.857 462.97 388.117 455.526 395.028 449.074C386.891 473.29 381.937 489.771 382.097 515.192C369.836 517.042 363.292 522.94 357.23 533.646C358.717 522.117 363.426 510.495 364.979 499.733C367.037 485.469 373.523 462.864 373.256 449.376Z" fill="#E2EAF8"/>
<path d="M534.104 37.1621C550.627 46.0403 613.531 81.682 602.742 105.771C601.648 104.572 601.685 104.088 601.106 102.49L600.486 102.464C599.741 107.716 601.174 113.547 599.917 117.517L594.578 166.427C594.417 167.796 594.296 168.48 594.018 169.803C592.405 169.221 592.177 168.544 591.725 166.324C590.824 161.904 590.567 153.475 588.728 149.598C585.144 142.045 578.725 136.92 576.71 128.31C572.395 109.864 577.068 90.0157 567.76 72.5339C561.674 61.1045 549.887 55.539 542.75 45.5215C539.56 43.0708 536.879 40.0758 534.104 37.1621Z" fill="#EBF1FC"/>
<path d="M534.104 37.1621C550.627 46.0403 613.531 81.682 602.742 105.771C601.648 104.572 601.685 104.088 601.106 102.49L600.486 102.464C599.741 107.716 601.174 113.547 599.917 117.517C599.312 114.958 599.105 109.39 599.076 106.524C598.905 89.9936 583.838 75.9337 572.427 65.662C567.765 61.466 547.607 45.9026 542.75 45.5215C539.56 43.0708 536.879 40.0758 534.104 37.1621Z" fill="#E2EAF8"/>
<path d="M772.894 144.59L774.182 144.705C775.155 146.526 773.997 151.594 773.638 153.914L784.245 155.572L778.927 165.482L788.529 167.301C786.652 170.457 784.91 173.967 783.208 177.246L794.164 179.49C792.551 182.975 790.655 186.59 788.922 190.038L797.485 192.253L792.994 202.024L803.384 204.057L799.074 214.302L808.492 217.255L804.348 226.55C806.839 227.488 808.618 227.892 810.484 229.761C811.362 232.204 809.867 235.188 808.958 237.89C811.923 239.076 816.897 240.656 818.739 242.98C812.334 246.237 805.985 249.585 799.683 253.023C786.869 221.419 765.798 185.534 753.942 154.694C760.199 151.057 766.456 147.891 772.894 144.59Z" fill="#EBF1FC"/>
<path d="M559.523 340.077C562.345 339.774 561.246 339.562 563.71 340.796L564.807 342.658C564.356 348.351 563.766 352.802 562.904 358.432C530.404 381.508 491.745 401.684 466.334 433.34C460.121 422.935 453.695 412.655 447.667 402.144C459.789 399.477 471.622 395.63 482.995 390.658C502.143 382.412 551.914 359.253 559.523 340.077Z" fill="#FEFFFF"/>
<path d="M704.61 1265.79C705.991 1267.23 707.19 1284.99 707.585 1288.05C715.015 1345.47 721.324 1403.95 733.623 1460.53L723.733 1460.74C722.784 1459.7 718.946 1433.22 718.394 1429.99C709.453 1377.64 696.535 1324.86 694.094 1271.67C698.184 1269.71 700.743 1268.19 704.61 1265.79Z" fill="#FEFFFF"/>
<path d="M347.582 446.471C348.003 448.894 344.763 459.697 343.846 462.679C335.819 488.777 337.513 515.436 337.777 542.627L330.771 549.514C325.78 543.011 320.887 537.762 315.015 532.084C309.295 526.531 303.1 521.49 296.501 517.017C301.145 511.56 308.038 501.385 312.419 495.362L347.582 446.471Z" fill="#FEFFFF"/>
<path d="M244.628 594.361C254.59 607.237 272.868 630.989 278.204 645.647C280.343 651.545 282.326 657.498 284.155 663.499C284.989 665.633 285.092 665.759 285.088 668.008C279.643 673.288 238.408 685.38 229.676 687.855C248.296 655.816 259.823 630.494 244.628 594.361Z" fill="#FEFFFF"/>
<path d="M278.204 645.646C280.343 651.545 282.326 657.497 284.155 663.498C280.967 662.701 281.611 663.376 280.012 661.262L280.29 661.156C277.01 657.282 276.593 650.207 278.204 645.646Z" fill="#FEFFFF"/>
<path d="M397.184 394.338C411.784 399.859 417.487 401.509 432.979 403.06C438.938 412.782 445.694 422.743 451.427 432.274C453.81 435.744 458.12 441.225 458.463 445.214C455.751 447.858 446.902 443.135 443.335 441.676C440.314 440.195 431.619 437.205 428.083 435.89L416.028 432.026C419.128 429.926 426.884 425.117 427.64 421.876C409.629 424.78 400.103 432.312 386.39 443.645C386.679 426.051 388.669 410.071 397.184 394.338Z" fill="#FEFFFF"/>
<path d="M451.426 432.275C453.81 435.745 458.12 441.226 458.462 445.215C455.75 447.859 446.901 443.136 443.335 441.677C446.413 440.683 450.486 435.328 451.426 432.275Z" fill="#FEFFFF"/>
<path d="M427.639 421.875L428.929 421.287C430.966 425.316 427.916 430.634 428.083 435.889L416.027 432.026C419.127 429.925 426.883 425.116 427.639 421.875Z" fill="#FEFFFF"/>
<path d="M167.925 349.359C173.025 350.48 174.945 351.56 179.518 353.842C179.341 371.489 180.189 387.612 179.366 405.399C173.452 414.907 167.313 416.417 156.513 416.5C153.34 415.787 146.911 414.568 147.467 410.893C150.12 393.382 149.771 385.732 144.557 368.454C148.071 362.673 161.298 352.179 167.925 349.359Z" fill="#FEFFFF"/>
<path d="M376.77 528.605C391.641 529.427 397.602 554.537 403.89 566.578C393.541 566.497 391.199 568.65 382.774 574.613C377.81 578.187 374.671 580.955 370.118 585.034C362.505 567.345 358.08 540.923 376.77 528.605Z" fill="#FEFFFF"/>
<path d="M128.508 373.324C133.394 373.027 137.111 373.268 141.957 373.535C143.522 389.678 151.293 402.013 135.507 413.176C129.774 417.232 127.132 420.93 119.849 422.822C93.4514 420.071 106.802 410.086 114.677 395.52C119.086 387.365 120.264 378.434 128.508 373.324Z" fill="#FEFFFF"/>
<path d="M707.272 1461.67C713.96 1461.41 733.059 1470.1 739.624 1473.43C743.118 1480.92 746.407 1488.85 750.506 1496.02C759.434 1511.63 767.444 1524.66 774.688 1541.23C772.429 1543.56 769.174 1546.28 766.673 1548.49C763.995 1550.53 760.143 1552.84 757.243 1554.71C758.452 1552.62 759.529 1550.45 760.633 1548.31C757.617 1532.24 750.363 1520.92 744.137 1506.56C734.574 1484.5 725.949 1476.2 707.272 1461.67Z" fill="#FEFFFF"/>
<path d="M616.209 779.769C626.78 781.547 646.058 780.182 657.069 779.322C656.402 793.081 654.039 809.65 652.338 823.548L651.956 827.587L651.09 828.164C643.738 822.022 618.806 787.733 616.209 779.769Z" fill="#FEFFFF"/>
<path d="M383.315 173.43C400.163 172.001 402.636 180.444 406.3 194.925C396.722 186.135 386.019 185.806 373.749 187.976C365.459 191.715 366.957 200.765 366.823 208.61C363.897 199.498 362.351 192.082 360.566 182.71C368.079 175.881 373.509 174.372 383.315 173.43Z" fill="#FEFFFF"/>
<path d="M752.148 125.523C756.294 126.972 768.939 136.057 774.443 138.847C768.964 141.617 763.427 144.272 757.836 146.81L752.656 149.393C747.925 143.668 743.855 138.83 738.737 133.467L752.148 125.523Z" fill="#FEFFFF"/>
<path d="M859.944 93.5022C862.434 93.4342 883.57 110.423 886.978 112.959L872.468 116.881C869.701 116.536 849.459 99.0975 845.9 96.1567L859.944 93.5022Z" fill="#FEFFFF"/>
<path d="M649.04 361.049C652.618 364.783 656.218 393.998 657.077 401.136L651.018 395.328C645.167 390.106 639.655 384.995 634.753 378.867C643.371 372.885 645.19 370.736 649.04 361.049Z" fill="#EBF1FC"/>
<path d="M776.212 1550.11C782.382 1556.62 772.753 1582.34 762.479 1583.27L762.486 1581.24C762.423 1575.38 762.642 1571.45 756.607 1568.71C760.908 1563.08 769.017 1559.47 776.212 1550.11Z" fill="#FEFFFF"/>
<path d="M842.635 96.918C851.476 103.559 860.213 111.14 868.705 118.276C867.369 120.874 866.902 121.708 865.076 124.104L837.116 103.394L842.635 96.918Z" fill="#FEFFFF"/>
<path d="M858.67 164.84C864.862 168.691 879.442 179.634 885.159 184.324C885.128 187.007 884.242 187.47 882.621 190.059C876.675 186.156 860.837 175.097 856.029 170.639C856.148 168.08 857.184 167.281 858.67 164.84Z" fill="#FEFFFF"/>
<path d="M865.139 190.141C871.552 194.173 887.572 205.697 892.901 210.57C892.917 212.866 892.039 213.111 890.268 215.261L888.853 215.611C883.832 212.689 868.895 199.81 863.945 195.142C863.17 194.407 864.617 191.537 865.139 190.141Z" fill="#FEFFFF"/>
<path d="M844.865 112.697C853.065 119.531 862.308 125.658 870.777 132.7C870.737 134.656 869.211 136.057 867.867 137.958C859.169 131.377 850.329 124.978 841.362 118.767L844.865 112.697Z" fill="#FEFFFF"/>
<path d="M848.131 126.035C854.037 130.038 868.99 140.436 873.718 144.946C873.845 146.9 872.303 148.83 871.22 150.599C863.012 144.001 853.468 138.416 845.608 131.553C845.616 129.044 846.573 128.473 848.131 126.035Z" fill="#FEFFFF"/>
<path d="M850.858 139.461C854.527 140.7 873.592 155.019 877.411 158.155C877.593 160.898 876.691 161.287 875.031 164.05C871.053 160.812 849.522 145.308 848.818 142.612L850.858 139.461Z" fill="#FEFFFF"/>
<path d="M854.82 152.137C861.667 156.571 874.319 165.711 880.407 170.89C880.597 173.832 880.004 173.835 878.478 176.771C870.191 170.358 860.853 164.066 853.049 157.199C852.495 154.662 853.056 154.901 854.82 152.137Z" fill="#FEFFFF"/>
<path d="M862.039 178.203C869.408 183.298 881.941 191.892 888.56 197.639C888.56 199.816 887.634 200.422 886.259 202.502C878.264 196.838 867.226 189.479 859.928 183.322C859.849 180.851 860.568 180.585 862.039 178.203Z" fill="#FEFFFF"/>
<path d="M559.523 340.077L558.892 339.529C560.256 336.939 563.328 332.369 563.125 330.033L561.469 329.693C558.219 333.388 557.77 338.069 555.454 338.943C549.986 331.37 558.138 325.786 564.227 327.678L561.754 327.195C564.836 327.564 563.817 327.04 565.84 328.934C566.905 331.242 565.733 340.403 564.807 342.658L563.71 340.796C561.246 339.562 562.345 339.774 559.523 340.077Z" fill="#EBF1FC"/>
<path d="M744.035 153.822L744.95 155.547C743.67 157.878 744.271 157.203 740.954 158.168C740.27 158.363 739.583 158.552 738.894 158.733C739.461 160.643 739.37 160.08 741.456 161.525C743.19 161.05 743.171 160.872 744.382 159.599C745.419 159.797 746.285 159.828 747.128 160.361C742.596 163.735 737.259 166.438 732.278 169.158C732.407 166.392 732.441 165.425 732.082 162.605L730.597 161.492C731.486 160.723 741.111 155.842 744.035 153.822Z" fill="#E2EAF8"/>
<path d="M677.486 1003.23C680.614 1005.91 689.94 1013.42 691.786 1016.3C691.733 1016.69 691.654 1017.7 691.491 1017.99C690.209 1016.12 687.886 1016.37 685.797 1016.14C683.834 1016.39 680.489 1016.4 678.404 1016.47C680.918 1012.43 678.729 1007.69 677.486 1003.23Z" fill="#E2EAF8"/>
<path d="M393.929 195.902C395.984 194.924 398.445 195.773 399.457 197.811C400.47 199.849 399.661 202.323 397.639 203.369C396.301 204.061 394.694 203.978 393.435 203.152C392.175 202.326 391.459 200.886 391.561 199.383C391.664 197.881 392.569 196.55 393.929 195.902Z" fill="#FEFFFF"/>
</g>
<defs>
<clipPath id="clip0_188_92">
<rect width="971" height="1619" fill="white"/>
</clipPath>
</defs>
</svg>
