<svg width="972" height="1619" viewBox="0 0 972 1619" fill="none" xmlns="http://www.w3.org/2000/svg">
<g clip-path="url(#clip0_190_204)">
<path d="M0 0H274.227H275.898H972V1619H275.952H274.394H0V0Z" fill="#D9E2F1"/>
<path d="M275.898 0H972V1619H275.952C275.976 1605.37 276.201 1591.05 275.727 1577.49C306.163 1590.75 362.088 1597.27 396.14 1592.06C409.006 1590.08 422.19 1582.35 429.694 1571.11C451.618 1538.25 418.221 1487.8 416.212 1456.51C414.847 1435.27 426.532 1384.66 430.408 1361.93C435.959 1329.37 443.169 1294.7 449.204 1262.03C451.408 1250.09 459.484 1242.69 459.74 1232.62C460.351 1208.58 454.265 1178.57 449.171 1155.06L490.185 1139.19C502.212 1105.69 514.49 1072.29 527.021 1038.98C516.917 1026.44 506.381 1014.59 496.407 1001.82C500.777 976.262 504.597 950.617 507.866 924.901C509.784 910.877 511.834 895.367 514.357 881.541C515.783 873.73 519.979 860.75 522.335 852.71L536.785 803.824C550.135 806.994 555.188 807.619 567.569 800.686C570.592 801.176 578.613 801.334 581.807 800.306C605.32 792.693 629.947 781.73 650.35 767.733C656.052 763.822 654.273 755.845 655.793 750.36C660.189 734.491 665.117 718.64 665.402 701.999C666.513 649.011 664.514 595.681 661.277 542.792C659.76 519.203 608.389 471.795 591.474 453.631C602.496 451.32 616.137 447.443 627.262 444.616C629.02 446.602 630.875 448.499 632.822 450.3C644.22 460.774 664.315 464.547 679.499 463.539C701.557 462.074 716.427 454.413 731.122 438.21C738.126 436.294 749.229 434.335 756.605 433.207C822.478 423.127 895.678 402.937 901.17 324.119C903.399 292.268 898.223 237.812 876.815 211.608C869.892 203.133 857.375 197.663 848.975 190.763C845.75 188.191 837.263 176.747 833.676 172.547C825.955 172.426 817.491 172.224 809.897 173.292L798.02 183.538L805.377 192.064C803.386 194.329 801.315 196.994 799.403 199.364L805.227 205.947L799.387 211.955L806.159 218.616L800.414 224.282L807.36 231.461L801.299 237.049L807.977 244.609L802.556 251.512L808.751 257.654C807.25 259.757 805.179 262.023 803.472 264.008C805.393 265.937 806.309 266.712 807.669 269.162C804.579 274.723 807.108 281.865 802.785 291.694C794.266 311.035 781.212 322.012 762.605 330.123C762.4 327.032 761.726 322.372 763.04 319.757C764.939 317.828 767.241 317.678 769.991 317.064L761.281 307.501C761.598 306.751 763.76 301.465 763.745 301.306C762.812 291.502 760.491 294.691 765.844 285.813L757.762 281.42L762.021 273.643L755.038 268.453C756.185 265.838 756.881 264.459 757.445 261.596C756.236 258.359 755.991 258.938 752.864 256.452L757.643 248.831L750.269 243.222L754.74 236.026L747.91 231.639L753.079 223.801L745.333 219.841C744.599 215.301 744.472 210.428 744.237 205.814C736.234 197.29 728.071 188.921 719.749 180.71C673.858 196.248 620.277 210.978 573.324 223.643C582.208 200.074 600.726 142.609 590.627 120.808C560.017 54.7347 470.963 2.99318 398.127 27.2026C377.567 34.0362 372.572 49.5527 364.545 66.6842C332.228 63.1984 297.739 61.2241 276.098 90.1652C275.405 82.5769 275.846 67.1462 275.85 59.0019L275.898 0Z" fill="white"/>
<path d="M0 0H274.226H275.898L275.85 59.0019C275.846 67.1462 275.405 82.5769 276.098 90.1652C275.064 92.1383 274.885 92.5178 274.426 94.6909C270.991 105.844 271.552 115.181 274.271 126.428C274.645 128.944 274.864 130.87 275.668 133.318L276.276 133.664C274.626 172.175 276.827 213.667 275.979 252.331C275.784 261.216 276.731 290.192 275.672 297.556C274.272 300.015 274.738 305.934 275.298 308.75L276.612 309.582C275.521 311.695 275.872 324.895 275.722 328.603C274.355 331.048 274.574 335.718 275.859 338.199C275.99 351.786 276.015 365.375 275.936 378.962C280.341 383.197 281.801 385.848 284.141 391.527C284.967 393.151 285.726 394.643 286.467 396.31L289.957 396.905L290.14 397.889C286.806 401.101 281.359 406.519 277.105 407.917L275.649 407.729C274.739 411.453 274.315 459.008 275.228 460.969L276.743 460.039C277.793 461.032 277.761 461.463 278.175 462.858L278.698 462.482L277.941 462.64C280.542 460.768 283.035 451.641 284.95 447.6C290.234 436.453 296.695 427.055 303.603 416.95C300.003 430.523 299.818 446.452 294.684 458.838C292.887 463.171 285.175 487.227 283.394 489.446C289.234 496.02 286.292 505.496 275.67 504.777L274.027 505.722C270.57 508.111 265.98 508.699 262.084 510.226C245.811 516.605 220.994 521.898 216.881 541.902C215.111 550.511 215.97 564.824 222.737 571.252L219.343 574.488C209.473 587.69 212.105 604.406 221.495 617.086C215.189 629.547 218.028 653.789 231.936 659.738C242.504 664.258 262.57 662.522 274.507 662.34C274.422 669.59 274.376 676.84 274.368 684.091C272.93 739.301 274.228 800.433 274.229 855.943L274.249 1173.47L274.267 1474.67C274.277 1521.82 273.317 1572.03 274.394 1619H0V0Z" fill="white"/>
<path d="M274.271 126.428C274.645 128.944 274.864 130.87 275.668 133.317L276.275 133.663C274.626 172.175 276.827 213.666 275.979 252.33C275.784 261.215 276.731 290.191 275.672 297.556C274.271 300.015 274.738 305.934 275.298 308.749L276.612 309.581C275.521 311.694 275.872 324.894 275.722 328.603C274.355 331.047 274.574 335.717 275.859 338.199C275.989 351.786 276.015 365.374 275.936 378.962C280.341 383.197 281.801 385.847 284.141 391.526C284.967 393.151 285.726 394.643 286.466 396.309L289.957 396.904L290.139 397.889C286.806 401.1 281.359 406.519 277.104 407.916L275.649 407.728C274.738 411.452 274.315 459.007 275.228 460.969L276.743 460.039C277.793 461.031 277.761 461.463 278.175 462.857L278.698 462.482L277.941 462.64C280.542 460.767 283.034 451.64 284.95 447.599C290.234 436.452 296.695 427.054 303.603 416.95C300.003 430.522 299.818 446.451 294.683 458.837C292.887 463.17 285.174 487.226 283.394 489.445C289.234 496.02 286.292 505.495 275.67 504.776L274.026 505.722C274.741 452.274 274.228 397.476 274.174 343.939L274.271 126.428Z" fill="#E9EFF9"/>
<path d="M274.227 0H275.898L275.851 59.0019C275.847 67.1462 275.405 82.5769 276.098 90.1652C275.064 92.1383 274.885 92.5178 274.426 94.6909L274.227 0Z" fill="#E9EFF9"/>
<path d="M274.368 684.09C276.337 689.636 275.286 735.752 275.259 745.007L275.224 744.372C288.458 756.966 307.293 762.459 325.435 762.254C332.178 762.178 346.311 756.452 352.666 758.023L353.207 758.153C361.252 760.133 369.291 765.715 377.75 767.514C380.584 768.117 383.036 771.196 387.26 771.709C389.004 770.415 389.506 766.868 391.573 764.167L392.756 763.588L393.988 764.314C393.61 767.302 392.314 773.285 392.168 775.419C388.805 789.998 384.979 805.926 382.015 820.535C350.029 827.855 306.563 832.33 275.64 818.44L275.356 817.626C274.33 826.551 275.593 841.286 275.327 851.12L275.251 849.46C303.705 849.832 320.127 848.709 347.295 839.191C355.715 836.243 379.754 840.1 388.282 830.25C396.76 820.274 397.591 791.783 403.17 778.165C413.029 785.28 468.13 819.42 471.094 823.887C475.652 830.748 479.567 838.251 483.211 845.642C480.251 846.772 481.329 846.045 479.201 848.757C477.123 856.093 486.381 868.567 485.279 876.077C478.854 919.857 471.041 963.431 465.038 1007.28C464.571 1010.69 464.063 1013.93 463.87 1017.38C445.943 1012.05 409.291 986.293 391.287 976.087C387.522 976.996 361.306 982.15 360.641 984.64C351.36 1019.39 357.911 1058.37 366.508 1092.71C374.151 1120.97 396.081 1136.64 414.935 1156.56C417.476 1159.17 424.823 1154.64 427.461 1153.35C432.696 1156.98 418.173 1165.42 429.064 1171.17C432.875 1169.78 433.211 1165.62 437.491 1163.45L439.002 1160.24C439.737 1162.15 440.486 1164.04 441.25 1165.94C435.56 1174.53 441.113 1187.83 442.561 1197.2C443.212 1201.41 443.376 1205.62 443.33 1209.87C429.327 1229.19 408.503 1225.31 387.46 1218.77C358.86 1209.88 309.571 1186.6 304.444 1152.45C301.744 1134.45 306.246 1106.45 297.713 1088.65C296.479 1086.22 278.256 1068.85 275.202 1065.84C274.817 1091.7 274.684 1117.58 274.805 1143.45C274.809 1154.97 274.516 1167.89 275.431 1179.39C275.641 1182.04 277.386 1182.87 277.709 1184.04C275.757 1186.68 275.978 1187.12 275.966 1190.98C275.891 1212.66 275.92 1234.39 275.922 1256.07L275.911 1380.94L275.907 1451.42C275.905 1459.32 275.4 1479.01 276.105 1486.17C274.096 1489.79 274.6 1576.11 275.727 1577.49C276.201 1591.05 275.976 1605.37 275.952 1619H274.394C273.317 1572.03 274.277 1521.82 274.267 1474.67L274.249 1173.47L274.229 855.943C274.228 800.432 272.93 739.3 274.368 684.09Z" fill="#E9EFF9"/>
<path d="M379.663 805.761C380.843 795.579 381.809 786.914 382.404 776.672L382.923 776.276L384.107 783.034C386.54 780.866 384.844 778.327 387.898 774.974C390.502 774.222 389.38 774.178 392.168 775.42C388.806 789.999 384.98 805.927 382.015 820.536C350.029 827.856 306.564 832.331 275.641 818.441C275.999 817.667 276.356 816.892 276.714 816.117C285.697 816.03 295.563 818.947 304.535 818.868C329.708 818.639 356.284 815.58 379.663 805.761Z" fill="#F6F7FA"/>
<path d="M349.452 156.916C377.301 143.057 411.411 139.559 434.485 164.591C426.522 163.445 415.891 162.726 408.605 160.83C405.705 164.778 399.69 171.639 400.117 176.29C408.277 185.876 446.122 179.049 461.439 190.651L464.853 192.284C474.504 195.168 482.809 200.941 490.968 206.828L484.462 196.157C492.259 196.422 500.598 196.853 508.355 196.87C507.496 202.357 506.788 207.878 506.833 213.459C506.969 230.479 511.437 242.271 502.373 258.082C497.311 266.912 508.242 291.619 512.47 300.036L515.204 306.588C513.86 310.465 511.965 315.466 510.985 319.347C506.285 332.929 498.221 347.9 488.217 358.303C484.425 362.323 480.039 365.738 475.213 368.429C454.656 380.069 401.827 395.225 377.359 396.085C359.432 396.715 336.92 385.408 324.063 372.909L319.907 304.234C318.273 272.273 316.182 254.36 328.671 224.475C327.994 220.479 325.367 215.777 321.171 214.75C324.236 209.555 321.814 201.619 320.761 195.326C320.734 193.666 320.449 191.242 320.303 189.522C319.89 186.153 320.03 185.457 320.516 182.162L323.168 181.276C324.904 182.798 325.141 182.921 327.442 183.026C329.184 181.529 328.626 181.747 329.041 178.711L330.45 182.068L331.136 178.57C337.619 174.678 340.925 174.043 348.171 172.764C352.361 172.813 364.02 173.473 366.712 176.809C368.037 178.449 369.133 180.014 370.602 180.272C372.679 178.637 373.977 176.766 374.287 174.097C373.393 162.107 372.091 158.949 358.863 157.828C355.874 157.574 352.503 157.16 349.452 156.916Z" fill="white"/>
<path d="M348.171 172.764C352.361 172.813 364.02 173.473 366.712 176.809C368.036 178.449 369.133 180.014 370.602 180.271C372.679 178.636 373.977 176.765 374.287 174.097L374.377 174.857C375.388 183.007 378.662 187.667 378.724 197.159C378.782 206.021 374.618 214.774 377.099 222.461C377.825 224.711 375.541 232.178 371.869 233.301C374.941 235.142 378.245 236.61 381.491 238.129C374.272 236.733 359.772 232.746 354.037 236.598C349 242.744 356.101 250.672 360.667 254.639C365.947 259.228 369.38 254.621 374.441 256.54C374.661 258.2 374.7 258.217 374.457 259.971L376.211 261.353C376.239 263.034 375.378 265.249 374.137 266.073C367.368 270.565 356.736 265.018 352.492 259.806C346.17 252.04 341.888 239.223 348.91 231.05C349.901 230.013 354.479 229.485 355.865 228.609C358.243 226.718 358.233 220.81 363.003 221.882L365.392 224.629C367.697 223.841 368.303 221.398 368.031 219.112C365.908 216.21 366.471 217.729 363.296 215.899L363.906 215.828C359.053 215.013 351.177 214.966 348.714 211.497C344.699 205.842 350.163 197.151 342.897 195.43C341.706 195.148 340.342 194.906 339.271 195.469C336.996 200.373 336.102 206.266 334.403 211.437C332.951 215.858 330.706 220.275 328.671 224.474C327.994 220.479 325.366 215.777 321.171 214.75C324.236 209.555 321.813 201.619 320.761 195.325C320.734 193.666 320.449 191.241 320.303 189.522C319.89 186.153 320.03 185.456 320.516 182.161L323.168 181.276C324.904 182.798 325.14 182.92 327.442 183.026C329.184 181.529 328.625 181.747 329.041 178.711L330.45 182.067L331.136 178.569C337.618 174.678 340.925 174.043 348.171 172.764Z" fill="#D9E2F1"/>
<path d="M331.136 178.569C337.618 174.678 340.924 174.043 348.171 172.764L349.706 174.73C351.249 174.44 352.143 174.295 353.708 174.175C354.936 175.281 355.104 175.043 355.305 176.35C356.457 183.837 362.327 183.769 367.926 191.848C359.257 187.958 353.47 186.177 343.855 186.222C337.181 186.254 341.392 181.939 338.258 179.002L337.383 179.1C334.723 179.385 333.676 179.614 331.136 178.569Z" fill="#F6F7FA"/>
<path d="M320.303 189.521C321.268 185.722 320.464 186.774 322.98 184.736C328.87 185.299 329.696 193.789 320.76 195.325C320.733 193.665 320.448 191.241 320.303 189.521Z" fill="#D9E2F1"/>
<path d="M361.595 197.638C363.724 197.285 365.746 198.695 366.154 200.814C366.561 202.935 365.206 204.993 363.098 205.456C361.685 205.766 360.214 205.286 359.258 204.199C358.301 203.113 358.009 201.594 358.495 200.23C358.981 198.866 360.168 197.874 361.595 197.638Z" fill="white"/>
<path d="M512.47 300.035L515.203 306.587C513.86 310.464 511.964 315.465 510.984 319.345C502.322 310.114 510.222 306.982 512.47 300.035Z" fill="#F6F7FA"/>
<path d="M461.439 190.65L464.854 192.283C462.171 194.737 458.292 196.554 454.93 194.444C455.873 192.136 457.963 192.472 461.074 190.844L461.439 190.65Z" fill="#F6F7FA"/>
<path d="M329.207 287.918C335.502 288.451 345.793 294.792 352.168 296.555C376.221 303.208 403.785 307.485 427.594 297.452C429.671 296.577 429.86 296.118 430.353 294.563C429.068 293.368 428.288 292.558 427.121 291.248C431.796 289.105 439.379 295.559 441.774 299.413L441.467 300.669L438.677 300.531L437.481 301.844C432.069 358.289 384.19 355.565 345.665 333.705C343.094 332.245 342.808 332.704 340.277 333.56L340.1 340.205C338.431 340.291 338.183 340.178 336.673 340.955C335.762 356.025 368.826 357.465 378.973 357.874L379.478 358.45C369.969 359.669 357.63 361.941 348.2 359.106C347.195 358.804 341.462 354.554 340.191 353.62C336.332 365.815 336.781 371.394 351.635 372.73L351.161 373.068C332.209 375.01 332.706 370.145 338.834 354.089C340.759 349.042 332.734 341.509 329.613 339.883C326.28 338.147 328.236 319.123 331.058 316.962C332.712 317.163 338.096 322.237 340.41 323.938C346.499 305.75 347.901 296.73 329.207 287.918Z" fill="#D9E2F1"/>
<path d="M351.821 299.498C374.646 305.206 390.077 308.078 414.059 306.648C418.393 306.389 426.249 302.929 431.754 302.498C433.125 304.881 432.196 308.89 431.222 311.319C412.627 320.073 368.776 320.71 352.465 307.992C351.238 305.608 351.724 302.341 351.821 299.498Z" fill="white"/>
<path d="M377.159 325.834C380.264 325.542 389.511 324.81 390.944 327.781L389.729 328.933C391.991 330.829 418.259 326.754 418.209 337.107C415.832 338.794 415.389 338.245 412.04 338.363C391.464 338.871 383.308 336.912 363.736 330.404C369.042 328.133 371.434 327.025 377.159 325.834Z" fill="#F6F7FA"/>
<path d="M358.776 331.693C358.774 331.693 367.417 334.629 367.31 334.531C370.687 337.633 405.558 342.401 405.717 342.516L404.539 343.006C395.08 344.991 361.348 342.713 356.312 335.419C358.49 333.772 357.782 334.645 358.776 331.693Z" fill="white"/>
<path d="M452.249 199.416L455.623 199.981C458.492 198.881 458.021 198.564 460.611 199.817C462.113 202.174 461.996 201.258 461.87 203.697L460.287 204.965C467.364 208.918 479.754 221.958 477.611 230.477C475.399 231.212 476.276 231.082 473.825 230.499C472.55 224.939 466.575 213.44 461.766 210.289L460.853 210.867C461.25 215.384 461.347 218.81 461.355 223.35C458.988 227.141 458.617 228.438 454.4 230.197C450.262 231.923 440.962 231 437.107 229.026C433.627 224.088 432.706 220.583 433.804 214.626C434.863 208.887 438.566 210.126 439.766 205.58C430.397 199.68 419.228 218.14 413.867 223.183L413.222 222.603C414.488 213.037 421.226 205.1 430.343 202.292C439.244 199.549 444.692 200.857 453.429 201.833L452.249 199.416Z" fill="#D9E2F1"/>
<path d="M452.492 211.018C454.885 210.305 457.422 211.561 458.307 213.897C459.192 216.233 458.124 218.856 455.86 219.908C454.241 220.66 452.337 220.445 450.927 219.349C449.518 218.253 448.839 216.461 449.169 214.705C449.498 212.95 450.781 211.527 452.492 211.018Z" fill="white"/>
<path d="M383.115 259.668C387.077 259.176 392.863 258.539 396.219 260.868L396.548 262.953C392.248 263.902 386.334 262.668 383.115 259.668Z" fill="#D9E2F1"/>
<path d="M228.194 549.301C228.235 544.613 227.739 538.991 231.464 535.908C241.897 527.276 269.673 517.315 282.587 516.566C290.565 521.29 294.393 526.107 300.72 531.375C324 550.761 332.738 572.748 344.038 600.072C346.597 606.26 353.182 621.054 354.764 627.282C355.141 628.759 355.414 630.26 355.582 631.775C355.369 642.61 354.596 653.655 355.911 664.419C356.17 666.532 355.985 669.123 355.883 671.272C355.572 677.494 353.159 695.256 348.324 699.123L347.599 698.95L347.863 696.724L347.071 696.052C345.805 698.869 344.43 702.23 342.765 704.762C342.492 702.485 346.906 693.582 348.139 690.718C342.742 695.799 331.989 706.486 325.981 709.564C321.381 708.984 322.625 702.876 317.151 706.297C314.302 708.078 313.959 711.415 313.939 714.327C299.21 709.803 297.273 700.846 292.726 687.199C290.823 681.972 287.397 667.332 285.538 660.896L286.198 659.081L287.777 658.377C286.483 653.804 284.991 655.761 286.69 647.795C287 646.339 286.446 643.543 285.118 642.096C282.101 642.052 280.227 643.968 278.199 646.023C274.647 649.623 276.1 645.948 271.713 646.177L270.007 648.168C264.896 649.256 252.183 649.304 246.36 649.241C242.586 649.2 237.71 647.568 234.964 644.177C231.14 639.49 231.082 630.056 230.983 624.285C230.902 619.54 248.461 615.464 251.688 614.174C270.925 606.494 280.73 610.576 299.466 616.095L288.668 608.351C279.121 601.613 274.507 599.719 263.427 601.641C255.83 603.633 245.366 606.69 237.84 607.881C232.766 608.205 232.861 608.078 228.846 605.128C218.737 580.091 236.478 590.582 235.955 576.156C273.372 559.25 273.169 557.884 306.831 580.432C304.006 576.308 301.008 571.786 297.947 568.087C280.573 547.089 267.42 551.61 244.947 561.219C242.619 562.215 237.701 563.951 235.073 563.511C232.616 563.1 231.92 561.589 230.448 559.763C228.461 555.611 228.34 553.84 228.194 549.301Z" fill="white"/>
<path d="M237.841 607.882C236.754 602.392 235.162 599.408 238.017 595.047C240.203 593.565 259.391 589.197 262.107 589.552L262.659 590.638C260.277 593.971 254.827 596.031 256.402 599.765C258.464 601.436 260.79 601.387 263.428 601.641C255.83 603.633 245.366 606.69 237.841 607.882Z" fill="#F6F7FA"/>
<path d="M252.727 634.479C256.929 633.868 263.218 633.628 267.595 633.326C263.107 637.393 260.113 640.873 254.563 643.176C250.358 643.261 245.54 641.763 243.596 637.835L244.275 636.415C246.429 634.493 249.749 634.682 252.727 634.479Z" fill="#F6F7FA"/>
<path d="M276.275 133.664C287.691 154.116 296.189 162.94 316.097 175.307C319.794 177.602 320.326 178.001 320.516 182.161C320.03 185.456 319.89 186.153 320.303 189.522C320.448 191.241 320.734 193.666 320.76 195.325C321.813 201.619 324.235 209.555 321.171 214.75C308.117 241.846 306.448 259.408 308.732 289.629C297.84 292.601 286.685 295.036 275.672 297.556C276.73 290.192 275.784 261.216 275.979 252.331C276.827 213.667 274.626 172.175 276.275 133.664Z" fill="white"/>
<path d="M276.105 1486.17C275.4 1479.01 275.906 1459.32 275.908 1451.42L275.912 1380.94L275.923 1256.07C275.92 1234.39 275.892 1212.66 275.966 1190.98C275.979 1187.12 275.757 1186.68 277.709 1184.04C279.636 1187.92 280.943 1190.32 283.267 1193.96L282.49 1204.93C282.124 1207.5 281.885 1209.43 281.724 1212.04C280.738 1219.62 281.978 1222.73 286.478 1229.01C287.112 1274.38 288.212 1319.75 289.779 1365.11C290.657 1394.47 292.496 1428.02 289.042 1457.24C288.259 1463.87 280.084 1480.64 276.105 1486.17Z" fill="white"/>
<path d="M363.211 629.92C366.454 629.441 366.992 628.794 369.562 629.996C375.229 637.886 386.798 664.162 384.624 673.747C381.128 689.163 371.347 706.319 362.577 719.419C356.145 729.028 346.509 733.086 336.758 738.511C332.594 734.837 322.065 726.375 320.411 721.866C321.324 719.757 322.812 717.094 322.629 714.958C320.635 713.407 320.267 713.461 317.288 713.84C316.17 713.988 315.054 714.15 313.939 714.327C313.96 711.414 314.302 708.078 317.152 706.296C322.625 702.876 321.381 708.983 325.982 709.564C331.989 706.485 342.742 695.798 348.14 690.718C346.907 693.582 342.493 702.485 342.765 704.761C344.431 702.229 345.805 698.869 347.071 696.052L347.863 696.724L347.599 698.949L348.325 699.122C353.159 695.256 355.573 677.494 355.883 671.271C355.986 669.123 356.17 666.531 355.912 664.418C354.597 653.655 355.37 642.61 355.582 631.774C359.032 633.111 360.888 632.745 363.211 629.92Z" fill="#F6F7FA"/>
<path d="M363.211 629.92C361.813 638.76 356.758 651.645 356.45 656.127C357.822 657.105 358.802 657.727 360.251 658.584C360.404 665.707 361.218 666.245 355.883 671.272C355.986 669.123 356.17 666.532 355.912 664.419C354.597 653.655 355.37 642.61 355.582 631.775C359.032 633.111 360.888 632.745 363.211 629.92Z" fill="#E9EFF9"/>
<path d="M463.87 1017.38C464.064 1013.93 464.572 1010.69 465.039 1007.28C471.042 963.431 478.855 919.857 485.279 876.078C486.382 868.568 477.123 856.093 479.202 848.757C481.329 846.046 480.251 846.773 483.211 845.643C488.369 855.074 493.595 864.473 498.889 873.833L476.731 1020.4L463.87 1017.38Z" fill="#F6F7FA"/>
<path d="M275.859 338.199C284.382 336.07 302.558 331.015 310.477 329.836C311.537 342.276 311.973 354.692 312.588 367.158C312.927 374.002 312.489 376.904 317.318 382.011C305.373 385.455 296.739 388.664 284.141 391.526C281.801 385.847 280.342 383.197 275.936 378.962C276.015 365.374 275.99 351.786 275.859 338.199Z" fill="white"/>
<path d="M276.612 309.582C287.484 306.997 298.334 304.322 309.162 301.559L309.908 320.417C298.745 322.916 286.747 325.566 275.723 328.604C275.872 324.896 275.521 311.696 276.612 309.582Z" fill="white"/>
<path d="M270.007 648.169L271.713 646.178C276.101 645.949 274.647 649.624 278.199 646.024C280.227 643.968 282.101 642.052 285.118 642.096C286.446 643.544 287 646.339 286.69 647.795C284.992 655.762 286.484 653.805 287.777 658.377L286.198 659.082L285.539 660.897L284.789 662.32C279.473 665.628 275.191 658.854 271.529 655L270.267 655.118C267.191 657.757 268.339 659.094 266.53 661.487C265.257 657.766 265.942 653.753 267.815 650.373C268.774 649.8 268.853 649.731 269.499 648.863L270.007 648.169Z" fill="#E9EFF9"/>
<path d="M222.738 571.252C229.162 575.198 224.521 581.317 235.956 576.156C236.479 590.583 218.738 580.092 228.847 605.129C227.58 605.476 227.395 605.292 226.074 605.026C218.955 599.864 218.843 596.724 221.846 588.381C222.031 587.869 223.899 587.865 224.5 587.799L225.046 587.044C225.167 582.651 221.916 577.991 219.344 574.488L222.738 571.252Z" fill="#E9EFF9"/>
<path d="M580.142 262.292C588.553 258.906 606.483 254.382 615.921 251.695C637.489 245.627 658.977 239.277 680.379 232.648C687.309 230.482 700.794 226.538 707.107 223.656C710.808 239.401 715.843 255.186 720.373 270.751C726.063 290.389 731.489 310.102 736.65 329.885C741.071 327.944 745.301 326.056 749.841 324.38C752.787 363.779 745.071 398.399 720.572 430.431C710.658 443.392 693.299 450.006 677.495 451.25C668.596 451.963 645.667 449.306 641.236 441.349C650.392 410.754 651.971 381.317 636.884 351.775C634.613 347.327 625.21 330.181 620.869 330.181C606.768 330.178 583.806 337.578 569.344 339.953C566.926 340.437 565.187 341.52 563.035 342.722L561.998 342.133C561.266 338.755 561.16 336.333 558.732 333.905L558.653 334.23C556.467 331.708 557.169 331.294 556.894 327.15L555.048 327.34C553.111 326.52 552.395 324.643 551.257 322.713C549.209 330.04 550.898 334.822 552.485 342.222L553.536 347.596C554.808 353.941 556.776 360.415 553.123 366.345C548.369 374.061 537.675 371.468 530.96 368.627C530.454 368.137 524.991 364.748 524.168 364.301C517.114 360.471 514.625 354.069 510.663 346.922C516.659 336.264 518.991 331.094 522.925 319.506C529.856 322.266 533.369 322.473 540.724 321.942C537.808 318.004 536.03 316.98 536.148 311.911C521.195 312.466 523.286 299.892 524.304 289.208C524.748 284.56 525.482 280.828 527.534 276.592L527.845 273.613C531.04 263.623 534.43 251.164 539.193 242.065C541.502 237.658 543.814 236.791 548.287 235.683C549.395 235.943 551.485 236.343 552.392 236.819L555.649 237.205C561.398 240.602 564.653 245.925 568.812 244.922C569.224 244.819 569.633 244.706 570.04 244.585C575.134 248.677 571.916 259.13 580.142 262.292Z" fill="white"/>
<path d="M548.287 235.682C549.395 235.942 551.484 236.343 552.391 236.818L555.648 237.204C561.398 240.601 564.652 245.924 568.812 244.921C569.224 244.818 569.633 244.706 570.04 244.585C575.133 248.676 571.915 259.129 580.142 262.292C581.034 269.36 579.489 275.467 577.634 282.26C572.765 293.353 569.181 300.82 560.405 309.519C554.519 316.132 549.258 319.265 540.723 321.941C537.807 318.003 536.029 316.979 536.147 311.91C521.195 312.466 523.286 299.891 524.304 289.207C524.747 284.559 525.481 280.827 527.533 276.591L527.844 273.612C531.039 263.622 534.429 251.163 539.193 242.064C541.501 237.657 543.813 236.79 548.287 235.682Z" fill="#F6F7FA"/>
<path d="M570.434 267.619C575.444 269.779 576.129 277.027 577.634 282.26C572.765 293.353 569.181 300.821 560.405 309.519C552.332 308.481 548.096 317.773 541.067 317.086C538.888 315.765 538.697 315.529 537.48 313.284C538.418 311.537 539.9 311.565 542.284 310.723C558.989 303.254 567.49 284.725 570.434 267.619Z" fill="#D9E2F1"/>
<path d="M555.648 237.205C557.618 239.634 558.051 241.969 557.165 244.991C555.264 245.581 548.829 246.272 546.938 245.426C547.2 242.372 548.916 239.736 550.366 236.941L552.392 236.818L555.648 237.205Z" fill="white"/>
<path d="M567.839 251.652C570.461 252.7 570.536 255.85 569.457 258.13C567.206 258.452 567.658 258.146 565.136 256.666C563.879 257.429 563.619 257.358 562.187 257.567L561.703 256.25C563.444 253.444 564.738 253.368 567.839 251.652Z" fill="white"/>
<path d="M551.257 322.713C558.859 315.824 611.23 311.823 623.52 312.442C624.368 312.476 625.215 312.539 626.059 312.631C648.16 326.719 659.292 370.711 664.676 394.856L656.943 387.475C651.939 365.807 641.678 335.042 625.74 318.868C616.637 317.347 561.832 322.184 556.894 327.149L555.048 327.34C553.111 326.519 552.395 324.643 551.257 322.713Z" fill="#D9E2F1"/>
<path d="M704.246 241.9C705.77 241.814 705.031 241.661 706.455 242.634C715.141 283.238 742.456 362.967 725.478 403.633C722.224 411.428 711.965 415.563 704.287 418.128C709.945 415.248 714.072 412.549 717.517 406.978C731.916 383.704 721.27 333.918 715.64 308.055C712.255 290.038 705.949 267.197 701.486 249.082C692.365 250.988 682.867 254.498 673.904 256.643C647.617 262.937 618.451 273.211 592.441 278.485C595.276 277.309 598.273 276.454 601.234 275.64C636.15 266.037 669.998 253.677 704.246 241.9Z" fill="#D9E2F1"/>
<path d="M425.628 651.031C424.77 642.56 423.503 631.253 430.311 624.439C464.394 590.327 502.769 559.858 542.39 532.403C569.202 513.823 585.477 510.541 617.16 517.036L632.121 521.416C637.835 527.456 643.23 535.369 647.834 542.308C650.093 578.45 651.412 614.644 651.789 650.855C652.141 674.628 653.075 697.187 649.721 720.728C630.777 670.901 617.866 652.895 573.699 622.247C555.016 610.878 535.38 597.778 516.03 587.726C516.486 578.562 516.82 571.138 518.199 562.017C514.525 568.428 511.43 576.851 507.334 583.053C506.526 584.275 504.688 583.936 503.108 583.96L507.011 585.247C506.891 586.261 506.152 592.251 506.233 592.368C505.045 591.648 505.828 589.588 502.647 588.487C500.795 590.051 501.103 589.336 500.616 591.362C502.188 593.775 502.432 594.359 502.417 597.243C503.791 599.231 503.074 598.781 505.114 599.523L501.393 604.787C497.173 601.721 499.375 595.719 497.625 590.309L496.715 590.28L494.247 593.945C487.507 605.826 476.935 619.49 471.771 631.562C470.126 635.408 468.953 651.206 468.45 656.012C454.329 653.227 440.011 651.561 425.628 651.031Z" fill="white"/>
<path d="M425.628 651.031C424.77 642.56 423.503 631.253 430.311 624.439C464.394 590.327 502.769 559.858 542.39 532.403C569.202 513.823 585.477 510.541 617.16 517.036C613.666 517.605 608.896 520.829 605.447 522.626C602.14 520.934 604.189 517.488 597.908 519.166C595.885 522.919 600.37 527.995 593.633 531.003C592.077 531.698 587.217 529.445 584.274 530.342C578.137 532.161 574.855 539.077 570.541 542.8C565.067 547.525 561.297 549.278 557.31 555.941C549.804 568.487 555.591 580.529 562.073 591.944C565.728 598.379 580.558 613.103 576.249 620.995L573.699 622.247C555.016 610.878 535.38 597.778 516.03 587.726C516.486 578.562 516.82 571.138 518.199 562.017C514.525 568.428 511.43 576.851 507.334 583.053C506.526 584.275 504.688 583.936 503.108 583.96L507.011 585.247C506.891 586.261 506.152 592.251 506.233 592.368C505.045 591.648 505.828 589.588 502.647 588.487C500.795 590.051 501.103 589.336 500.616 591.362C502.188 593.775 502.432 594.359 502.417 597.243C503.791 599.231 503.074 598.781 505.114 599.523L501.393 604.787C497.173 601.721 499.375 595.719 497.625 590.309L496.715 590.28L494.247 593.945C487.507 605.826 476.935 619.49 471.771 631.562C470.126 635.408 468.953 651.206 468.45 656.012C454.329 653.227 440.011 651.561 425.628 651.031Z" fill="#F6F7FA"/>
<path d="M494.247 593.946C491.596 591.301 491.254 588.839 493.416 586.046C496.157 585.026 497.67 584.433 500.539 585.537L503.108 583.961L507.012 585.248C506.891 586.262 506.153 592.252 506.234 592.369C505.046 591.649 505.829 589.589 502.647 588.488C500.796 590.052 501.103 589.337 500.616 591.363C502.188 593.776 502.433 594.36 502.418 597.244C503.792 599.232 503.074 598.782 505.115 599.524L501.393 604.787C497.173 601.722 499.376 595.72 497.625 590.31L496.716 590.281L494.247 593.946Z" fill="#E9EFF9"/>
<path d="M571.314 527.007C572.768 526.879 572.048 526.807 573.428 527.547C572.805 531.353 565.18 536.159 561.596 539.271L560.116 539.879L559.314 538.873C560.384 535.317 568.127 529.524 571.314 527.007Z" fill="white"/>
<path d="M536.815 414.686C550.05 429.789 564.173 444.149 577.373 459.342C520.791 474.47 477.244 504.55 432.452 541.058C424.49 547.546 412.585 557.262 405.276 564.186C397.707 563.546 389.808 563.007 382.336 561.813C379.352 561.755 370.671 560.571 367.331 560.2C357.392 559.268 347.49 557.974 337.644 556.32C328.958 542.085 323.73 535.863 311.701 524.502C311.67 494.132 326.954 463.442 339.185 436.005C352.22 441.655 362.071 453.788 369.895 465.248C361.061 483.729 345.398 520.238 341.646 540.265C345.352 533.792 355.523 519.92 360.116 513.245C366.971 502.887 392.53 464.203 409.276 473.906C414.721 477.061 418.185 494.586 421.298 501.84L492.493 448.206C505.169 438.53 523.656 423.457 536.815 414.686Z" fill="#F6F7FA"/>
<path d="M360.116 513.246C361.449 518.061 352.767 542.409 347.878 544.435C345.331 544.044 342.293 543.337 341.646 540.265C345.353 533.793 355.523 519.921 360.116 513.246Z" fill="white"/>
<path d="M367.331 560.199C366.65 554.547 364.156 554.689 363.97 551.371C364.735 549.75 365.606 549.411 367.115 548.434C370.054 557.529 374.889 553.242 378.247 560.348L382.095 560.695L382.337 561.812C379.352 561.755 370.671 560.571 367.331 560.199Z" fill="white"/>
<path d="M382.021 531.986L383.487 532.242C379.15 536.923 375.902 542.296 370.489 543.574L369.666 544.224C371.327 539.836 378.184 535.081 382.021 531.986Z" fill="white"/>
<path d="M397.392 662.354C423.93 664.056 463.255 665.676 488.065 677.054C493.157 679.389 501.932 689.937 505.755 693.496C517.261 704.209 556.607 775.453 557.698 788.658C552.601 800.116 508.698 774.276 500.279 770.627C505.432 778.044 510.895 785.534 516.96 792.243C508.705 791.729 501.49 791.231 493.304 790.164C457.19 783.543 445.591 777.227 414.149 759.09C400.912 751.444 387.607 743.916 374.237 736.505C372.568 735.68 370.268 734.635 368.772 733.627C385.117 714.306 398.726 688.088 397.392 662.354Z" fill="#F6F7FA"/>
<path d="M374.236 736.506C376.202 734.422 378.799 732.606 381.792 732.572C386.695 732.517 434.79 759.235 442.845 764.031C448.675 767.503 454.501 772.393 460.61 775.121C466.942 777.949 493.151 784.714 495.415 786.284L496.079 787.846C495.167 789.742 495.646 789.104 493.303 790.165C457.19 783.544 445.591 777.228 414.148 759.091C400.911 751.445 387.606 743.917 374.236 736.506Z" fill="white"/>
<path d="M505.114 599.523C512.475 598.476 526.915 609.773 534.047 613.397C560.569 626.874 587.422 641.949 605.561 666.284C618.653 685.356 640.977 728.687 643.871 750.791C644.099 752.6 644.271 754.415 644.389 756.235C636.645 761.287 622.393 769.933 613.733 773.413C605.765 757.119 598.117 741.264 588.512 725.838C593.097 747.148 593.086 758.108 599.694 780.315C588.093 784.828 583.961 786.2 571.789 788.149C561.214 758.346 536.849 712.753 517.651 687.324C510.596 677.978 489.888 659.992 480.245 653.113C481.455 645.397 482.535 637.661 483.485 629.907C495.467 634.966 508.09 640.099 519.855 645.518C511.874 636.455 503.796 627.479 495.622 618.589C496.805 615.806 500.64 607.264 501.393 604.787L505.114 599.523Z" fill="#F6F7FA"/>
<path d="M566.636 731.199C569.905 731.757 566.422 731.364 569.037 734.786C570.34 734.741 571.201 734.65 572.48 734.503L573.124 735.599L571.583 737.712C572.335 740.121 572.722 741.015 572.646 743.583C570.242 745.76 568.495 746.467 566.294 749.042L565.876 749.539C564.893 748.713 563.906 747.893 562.915 747.078C561.148 747.519 560.691 747.75 558.854 747.441C561.065 742.59 562.122 742.353 560.785 736.256C560.412 734.553 560.763 734.293 561.736 733.036C564.1 732.819 564.738 732.631 566.636 731.199Z" fill="white"/>
<path d="M560.321 656.604C562.593 661.069 559.659 666.522 556.832 669.95L554.832 669.968L554.237 669.395C559.818 662.41 556.173 661.884 560.321 656.604Z" fill="white"/>
<path d="M546.828 714.164C549.302 714.419 549.857 714.381 552.119 715.299C552.34 717.459 552.273 716.762 550.477 719.076L547.647 719.193L546.423 717.989C546.225 715.972 546.131 716.011 546.828 714.164Z" fill="white"/>
<path d="M432.204 29.5883C471.308 25.5697 519.051 52.9314 528.294 92.8609C531.654 107.375 525.712 140.247 522.587 155.611C517.662 148.737 505.285 137.111 498.82 130.944C492.101 126.178 484.349 118.942 476.584 113.464C444.832 91.0656 414.999 76.7366 377.073 69.0268C390.297 40.1182 399.937 32.3113 432.204 29.5883Z" fill="white"/>
<path d="M443.205 1141.25C433.146 1132.99 416.13 1109.48 414.68 1096.45C411.917 1071.63 422.674 1041.79 432.752 1019.45C449.816 1029.68 462.169 1034.19 482.109 1036.94C486.203 1037.5 493.316 1038.44 497.304 1037.97C498.738 1036.15 498.622 1035.32 498.814 1032.99L498.877 1032.19L500.005 1032.74C500.304 1034.73 500.488 1035.36 501.109 1037.28C503.429 1038.27 505.776 1039.2 508.148 1040.05C506.051 1047.28 503.057 1055.11 500.366 1062.16C492.176 1083.62 484.954 1105.67 476.71 1127.08C469.436 1129.96 460.766 1133.94 453.767 1136.48C452.722 1137.4 444.987 1140.49 443.205 1141.25Z" fill="#E9EFF9"/>
<path d="M508.148 1040.05C506.051 1047.28 503.057 1055.11 500.366 1062.16C492.176 1083.62 484.954 1105.67 476.71 1127.08C469.436 1129.96 460.766 1133.94 453.767 1136.48C455.117 1132.34 467.967 1124.81 472.551 1121.58C478.895 1104.83 487.919 1081.69 493.89 1064.11C494.313 1062.87 490.871 1057.95 490.919 1054.02C491.781 1051.71 491.932 1051.46 493.983 1050.1C500.809 1049.6 501.44 1048.91 502.826 1042.24C505.122 1039.94 504.4 1040.61 508.148 1040.05Z" fill="#F6F7FA"/>
<path d="M552.485 342.222C550.897 334.821 549.209 330.039 551.257 322.713C552.395 324.643 553.111 326.519 555.048 327.34L556.894 327.149C557.169 331.293 556.467 331.708 558.653 334.229L558.732 333.904C561.159 336.333 561.265 338.754 561.998 342.132L563.035 342.721C565.187 341.52 566.926 340.437 569.344 339.953C570.515 342.837 571.252 343.244 573.611 345.101C577.363 345.987 611.575 337.316 619.174 336.333C638.159 360.295 644.422 383.735 640.873 414.298C640.02 421.441 638.671 428.516 636.836 435.473L621.84 439.578L611.952 442.085C608.987 443.373 589.009 447.642 585.513 448.329C585.813 425.296 589.035 400.141 581.116 378.16C579.468 373.588 573.287 354.423 569.503 352.525C564.585 362.978 566.737 374.967 568.35 385.598C569.682 394.195 564.177 404.76 554.258 403.175C545.196 401.726 537.742 389.595 532.723 382.281C530.645 379.776 527.768 376.315 527.499 373.096C528.654 369.631 527.781 370.843 530.96 368.627C537.675 371.468 548.369 374.061 553.123 366.344C556.776 360.415 554.808 353.941 553.536 347.596L552.485 342.222Z" fill="#E9EFF9"/>
<path d="M532.723 382.281C543.566 383.881 546.833 373.898 556.158 375.011C561.661 378.976 558.223 382.1 566.351 382.825L568.349 385.598C569.682 394.195 564.177 404.761 554.258 403.176C545.195 401.727 537.741 389.595 532.723 382.281Z" fill="white"/>
<path d="M611.952 442.085C611.899 437.907 615.98 429.578 621.077 430.006C624.325 433.292 622.962 435.421 621.839 439.579L611.952 442.085Z" fill="#F6F7FA"/>
<path d="M552.484 342.222C555.027 339.937 553.889 340.341 556.786 340.18C558.705 341.555 559.314 343.692 559.717 345.982C560.222 348.9 560.437 351.86 560.361 354.82L559.341 354.787C558.665 351.765 558.12 348.346 556.652 345.705C555.069 346.42 554.887 346.603 553.535 347.596L552.484 342.222Z" fill="#D9E2F1"/>
<path d="M638.602 402.672L640.201 404.099C640.906 409.443 640.954 412.724 639.177 417.83L637.975 417.339C636.19 416.387 636.252 416.37 634.847 414.871C633.999 409.454 633.57 405.716 638.602 402.672Z" fill="#F6F7FA"/>
<path d="M563.682 355.939C566.397 361.989 566.605 370.952 560.369 374.978C559.855 374.344 559.285 373.376 558.83 372.665C562.519 365.343 561.321 360.412 563.682 355.939Z" fill="white"/>
<path d="M447.73 159.977C439.733 150.642 432.29 137.756 423.636 128.213C401.672 103.993 359.463 82.2126 326.543 81.1675C318.423 80.9098 301.969 81.1343 295.942 86.6245L296.828 88.7898C295.096 89.8609 291.419 89.3779 289.558 88.8775C292.964 81.4987 317.751 75.7855 325.914 75.1573C369.165 71.8286 411.983 86.1834 449.252 107.227C455.327 110.658 463.423 115.215 468.746 119.588C498.136 140.278 513.606 156.082 532.515 186.244C522.798 186.557 512.832 186.755 503.138 186.851C474.292 187.133 463.814 186.332 447.73 159.977Z" fill="#E9EFF9"/>
<path d="M467.86 173.038C476.255 173.613 503.177 176.15 508.118 171.14C519.488 159.608 471.707 127.481 466.04 121.257L468.747 119.588C498.137 140.278 513.607 156.082 532.516 186.244C522.799 186.557 512.833 186.755 503.138 186.851C474.293 187.133 463.814 186.332 447.73 159.977L448.555 159.653C455.731 163.868 461.164 168.136 467.86 173.038Z" fill="#F6F7FA"/>
<path d="M864.622 225.598C872.864 231.874 860.133 245.841 876.467 248.295L877.352 248.423C881.801 253.108 872.153 264.782 875.448 271.174C884.623 288.943 871.236 309.899 886.488 325.938L888.432 322.825L889.214 323.082C890.779 333.331 882.323 355.307 876.341 364.259C852.72 399.584 807.637 410.27 769.123 418.537C759.352 420.394 750.206 422.101 740.336 423.498C747.199 410.633 750.879 401.82 756.153 388.381C792.093 386.279 848.848 379.011 863.768 337.333C871.623 315.387 865.112 280.893 863.768 257.981C863.349 250.838 860.489 238.507 861.808 231.614C863.855 229.54 863.942 228.357 864.622 225.598Z" fill="#E9EFF9"/>
<path d="M498.935 373.971C501.231 376.504 501.701 377.484 502.934 380.651C504.484 381.872 506.523 382.579 508.44 382.911C515.494 384.132 518.162 388.81 522.621 394.377C523.526 395.559 526.453 399.213 527.111 400.288C528.773 402.333 529.775 402.744 529.624 404.827C525.758 408.143 510.412 419.394 505.94 422.028L504.688 423.41C499.634 426.735 494.702 430.244 489.841 433.844C471.375 447.523 451.834 459.831 433.978 474.33C433.536 474.965 427.836 479.958 426.867 480.825C417.065 450.012 403.626 453.944 380.268 470.371C402.642 439.022 415.682 432.641 449.579 417.589C466.291 410.119 483.086 402.836 499.961 395.739L500.336 394.789C498.513 390.383 499.74 384.679 494.648 383.571C497.279 381.427 498.014 377.262 498.935 373.971Z" fill="#F6F7FA"/>
<path d="M433.978 474.33C425.457 470.621 425.749 456.526 433.446 451.536C435.422 451.812 435.929 452.703 437.347 454.218L437.892 454.805C445.701 455.358 452.579 443.385 457.505 439.69C465.804 433.465 479.268 430.141 485.776 421.763C486.746 420.514 485.042 417.805 484.41 416.417C486.963 412.703 499.384 413.033 503.598 415.002C505.045 417.436 504.606 420.237 504.687 423.41C499.634 426.735 494.702 430.244 489.841 433.844C471.375 447.523 451.834 459.832 433.978 474.33Z" fill="white"/>
<path d="M498.935 373.971C501.231 376.504 501.701 377.484 502.934 380.651C504.485 381.872 506.523 382.579 508.441 382.911C515.494 384.132 518.162 388.81 522.621 394.377C519.534 395.104 515.118 398.939 511.337 395.315C510.995 390.539 514.979 390.722 512.555 387.98L509.589 388.233C506.587 392.005 504.824 394.547 499.961 395.739L500.337 394.789C498.513 390.383 499.74 384.679 494.648 383.571C497.279 381.427 498.014 377.262 498.935 373.971Z" fill="#E9EFF9"/>
<path d="M505.94 422.029C505.319 420.455 504.205 417.382 504.814 415.827C507.8 408.195 520.236 403.522 527.111 400.289C528.773 402.334 529.775 402.745 529.624 404.828C525.758 408.144 510.412 419.395 505.94 422.029Z" fill="white"/>
<path d="M420.473 608.267C420.198 599.03 423.05 594.171 428.547 586.826C466.609 535.98 519.447 498.71 583.196 489.429C590.163 488.414 598.784 487.254 605.771 487.647C609.204 489.278 612.268 494.281 614.344 497.432C616.32 500.268 618.716 503.521 620.551 506.388C555.197 487.485 485.636 555.222 440.842 594.922C438.06 597.388 424.409 610.622 421.837 611.424C421.103 610.05 420.921 609.805 420.473 608.267Z" fill="#E9EFF9"/>
<path d="M420.474 608.266C427.562 600.823 442.653 587.556 450.93 580.356C487.28 548.64 519.394 516.525 567.018 502.167C590.817 494.992 590.218 496.07 614.344 497.431C616.32 500.267 618.716 503.52 620.552 506.387C555.198 487.484 485.636 555.221 440.842 594.921C438.061 597.387 424.409 610.621 421.837 611.423C421.103 610.049 420.922 609.804 420.474 608.266Z" fill="#F6F7FA"/>
<path d="M815.958 289.713C818.59 291.087 827.03 301.3 829.029 304.271C828.341 313.987 826.508 329.442 828.523 338.68C829.93 345.132 833.786 347.787 839.215 350.797C823.276 368.061 804.508 373.898 782.084 378.109C773.827 379.415 766.475 380.495 758.167 381.322C760.739 364.706 762.686 359.752 762.783 342.499C790.757 334.773 805.82 315.594 815.958 289.713Z" fill="#E9EFF9"/>
<path d="M851.045 205.951C851.314 206.063 852.12 206.851 852.381 207.084L859.122 283.951C860.117 296.236 861.445 309.502 861.405 321.796C861.366 335.62 849.757 355.159 834.924 341.223C831.834 338.326 833.304 327.562 833.589 323.524C833.66 317.318 833.849 311.115 834.158 304.917C837.01 302.558 840.764 299.902 843.783 297.634C841.594 294.877 839.057 291.977 836.781 289.255C838.71 287.297 839.737 286.432 841.017 283.922C839.674 282.251 839.658 282.009 838.947 279.945C839.713 277.738 840.187 278.035 842.59 276.588C845.861 270.352 836.805 255.222 832.032 250.846L838.03 244.163L831.929 237.934C833.526 235.409 835.525 233.414 837.548 231.222L831.115 224.589L836.892 218.551C834.893 216.631 833.241 215.341 832.293 212.705C832.791 205.329 844.976 206.358 851.045 205.951Z" fill="#F6F7FA"/>
<path d="M552.287 105.076C554.011 104.939 554.082 105.145 555.584 105.952C558.378 103.436 557.837 101.159 560.258 100.307C564.783 105.123 571.151 115.868 573.604 122.322C575.63 127.654 572.195 140.425 574.01 143.934L575.51 145.152C576.3 153.21 574.044 159.187 571.889 166.965L572.474 167.706L573.591 166.388L574.248 166.864C575.736 180.149 571.478 193.975 568.238 206.713C567.236 210.654 570.081 208.691 567.955 216.018C565.428 224.725 558.802 230.629 555.648 237.205L552.392 236.819C551.485 236.344 549.395 235.943 548.287 235.683L549.589 235.624L550.537 234.276L551.707 234.718L550.148 235.526C551.242 235.011 551.606 235.111 551.966 234.383C550.784 233.611 549.646 232.915 548.437 232.186C548.298 228.675 556.123 221.257 555.718 219.182C554.333 212.092 542.479 191.17 543.132 185.225L544.765 185.504C547.898 179.551 551.256 179.282 554.774 175.985L555.236 175.542C546.338 161.909 553.088 142.018 553.851 126.937C553.587 123.845 554.282 121.014 552.885 118.887C549.255 117.256 553.12 119.285 549.352 119.984C545.728 116.71 540.168 112.908 546.176 108.714C548.844 106.853 548.604 106.31 551.718 106.73L552.287 105.076Z" fill="#E9EFF9"/>
<path d="M693.036 200.15C696.79 201.331 702.768 213.086 704.99 216.963C666.05 229.707 623.177 240.648 583.379 251.281L580.888 251.749C579.747 250.86 573.977 239.873 571.235 236.211L693.036 200.15Z" fill="white"/>
<path d="M430.962 1271.11C431.572 1271.15 431.556 1271.36 432.221 1271.91C422.369 1328.73 405.976 1393.53 399.674 1450.23C396.71 1449.91 392.819 1449.05 389.808 1448.45L388.146 1447.94C386.047 1443.61 414.926 1290.74 418.389 1276.09C423.583 1274.46 426.139 1273.35 430.962 1271.11Z" fill="white"/>
<path d="M733.462 213.624L735.171 213.518C735.781 215.661 734.062 219.175 733.208 221.529L742.925 225.568L736.257 233.701L744.519 237.582L738.448 245.781L747.912 250.202C746.025 253.046 743.29 256.439 741.184 259.212L749.842 262.51L743.802 271.08L753.026 275.308L747.677 284.067C751.204 285.76 752.923 286.766 756.208 288.903L750.894 296.845L757.318 300.521C756.012 303.129 754.094 306.073 754.257 308.801L755.884 310.225C757.908 311.477 758.413 311.625 759.767 313.5L759.127 314.931C755.377 317.787 746.501 319.619 741.579 320.973C734.742 290.115 722.2 250.319 713.714 218.847C719.707 217.005 727.289 215.242 733.462 213.624Z" fill="#E9EFF9"/>
<path d="M505.001 355.426L498.935 373.972C498.014 377.263 497.279 381.428 494.648 383.572C465.474 395.253 432.693 409.914 405.458 425.934C401.92 428.016 391.281 438.615 389.193 437.967C388.568 436.248 388.391 435.92 387.48 434.318C385.825 437.31 389.777 448.688 388.76 453.966C384.951 450.181 383.048 445.016 383.03 439.692C383.017 435.898 384.579 434.937 387.155 432.464L382.593 420.644C380.882 416.778 379.032 411.379 377.501 407.319C411.594 404.632 454.931 391.924 485.053 375.532C492.188 371.65 500.009 361.918 505.001 355.426Z" fill="white"/>
<path d="M382.594 420.643C385.882 422.394 392.263 421.849 393.643 425.012C392.341 429.744 390.387 433.718 389.194 437.965C388.568 436.246 388.392 435.918 387.481 434.316C385.825 437.308 389.778 448.687 388.76 453.964C384.952 450.179 383.049 445.015 383.03 439.69C383.017 435.896 384.58 434.935 387.155 432.463L382.594 420.643Z" fill="#E9EFF9"/>
<path d="M330.104 392.111C340.025 397.647 348.679 402.889 359.89 405.288C366.298 407.74 366.917 415.15 369.834 421.454L371.251 425.302C373.78 430.891 379.492 442.268 379.813 447.807L379.019 449.223C376.294 449.381 364.695 441.947 362.857 439.949C356.516 436.284 350.087 432.773 343.576 429.419C348.017 426.374 353.111 423.366 357.723 420.513C334.313 423.799 335.095 421.604 312.28 435.438C316.016 418.501 320.916 406.574 330.104 392.111Z" fill="white"/>
<path d="M371.252 425.301C373.781 430.891 379.493 442.267 379.814 447.806L379.019 449.222C376.295 449.38 364.696 441.946 362.857 439.948C369.326 435.021 366.287 428.94 371.252 425.301Z" fill="#F6F7FA"/>
<path d="M359.891 405.287C366.299 407.739 366.917 415.15 369.834 421.453C369.336 421.313 368.839 421.174 368.342 421.034L367.759 420.849C365.422 420.13 364.149 418.467 362.408 416.696C361.244 412.612 360.25 409.564 359.891 405.287Z" fill="#F6F7FA"/>
<path d="M479.826 801.84C495.826 804.583 504.389 805.642 520.564 805.611C516.728 818.378 512.811 831.121 508.81 843.833L505.254 855.098C498.009 842.528 484.373 815.54 479.826 801.84Z" fill="white"/>
<path d="M373.211 1446.79C386.248 1453.07 390.886 1455.99 402.7 1464.51C404.623 1480.21 411.496 1499.9 417.095 1514.86L414.229 1515.99C411.319 1524.03 412.477 1526.64 406.178 1530.1C403.83 1513.31 398.296 1487.64 391.404 1471.95C388.523 1465.4 377.816 1452.54 373.211 1446.79Z" fill="white"/>
<path d="M417.095 1514.86C418.731 1520.3 420.333 1531.4 423.477 1533.8C426.959 1534.02 427.247 1533.42 429.46 1535.34C431.839 1540.65 430.113 1544.52 429.276 1549.31C425.861 1548.88 424.894 1548.15 422.207 1549.43L420.577 1552.67C419.21 1551.31 418.808 1549.17 417.612 1547.01L415.812 1548.6C415.456 1545.99 414.685 1543.64 412.417 1542.36C409.064 1542.22 403.262 1546.07 399.977 1547.87C406.608 1540.51 407.456 1540.71 406.178 1530.1C412.477 1526.64 411.319 1524.03 414.229 1515.99L417.095 1514.86Z" fill="#F6F7FA"/>
<path d="M415.812 1548.59L417.612 1547.01C418.808 1549.17 419.21 1551.31 420.576 1552.67C420.844 1555.34 420.114 1556.47 419.09 1558.96L418.733 1560.42C416.04 1565.56 408.092 1575.03 401.771 1574.62C400.849 1573.07 401.192 1573.28 401.324 1571.08C385.469 1564.03 404.073 1554.86 410.91 1551.84L415.812 1548.59Z" fill="#E9EFF9"/>
<path d="M401.324 1571.08C411.936 1564 407.754 1559.05 411.792 1555.55C415.227 1558.1 415.529 1556.96 418.244 1558.52L418.733 1560.42C416.039 1565.56 408.092 1575.03 401.771 1574.62C400.849 1573.07 401.192 1573.28 401.324 1571.08Z" fill="white"/>
<path d="M415.812 1548.59L417.612 1547.01C418.808 1549.17 419.21 1551.31 420.576 1552.67C420.844 1555.34 420.114 1556.47 419.09 1558.96L418.345 1557.53C414.69 1555.44 414.096 1554.76 410.91 1551.84L415.812 1548.59Z" fill="white"/>
<path d="M814.726 178.664C819.815 178.704 825.789 179.138 830.949 179.4C836.868 187.066 843.633 193.627 849.607 202.014C845.253 202.138 839.444 203.049 835.019 203.615C828.5 195.37 820.897 186.849 814.726 178.664Z" fill="white"/>
<path d="M814.679 272.906C817.998 273.256 837.398 294.657 838.022 297.654L835.738 300.639L834.103 301.002C830.713 299.572 816.346 281.378 813.746 277.049C812.948 275.712 813.983 274.379 814.679 272.906Z" fill="white"/>
<path d="M812.758 234.242C815.318 234.89 830.989 253.505 833.62 256.563C833.296 259.099 832.316 259.531 830.491 261.806C825.868 256.66 813.999 244.386 810.403 238.087C810.103 237.557 812.149 235.084 812.758 234.242Z" fill="white"/>
<path d="M818.859 204.791C822.312 206.304 829.211 214.179 830.602 217.783C831.171 219.274 830.507 219.67 829.63 221.557L827.749 221.904C825.647 220.93 822.273 217.927 821.087 216.004C817.342 209.972 817.792 210.937 818.859 204.791Z" fill="white"/>
<path d="M811.66 221.205C814.347 223.715 818.582 227.283 820.179 230.528C821.522 233.237 820.463 234.238 819.333 237.082C816.488 234.053 810.095 228.903 809.55 224.891C809.392 223.674 810.743 222.415 811.66 221.205Z" fill="white"/>
<path d="M811.027 208.441C812.434 208.884 816.061 212.214 816.796 213.482C818.487 216.429 816.978 218.231 815.753 221.321C813.106 218.442 810.016 216.406 808.443 212.76C808.625 210.002 808.325 211.055 811.027 208.441Z" fill="#F6F7FA"/>
<path d="M810.601 194.98C813.216 196.798 815.168 199.049 815.461 202.236L813.738 203.746C810.68 203.149 808.807 202.662 807.242 199.927C807.993 196.889 808.119 197.498 810.601 194.98Z" fill="white"/>
<path d="M573.635 428C576.706 428.659 578.105 429.774 579.639 432.334C579.851 435.218 579.637 435.666 578.645 438.408C575.806 435.058 571.94 432.21 573.635 428Z" fill="#E9EFF9"/>
<path d="M824.177 259.518C828.278 260.997 832.253 264.25 830.602 268.934C827.82 267.714 827.046 267.489 824.904 265.163C823.916 262.59 823.893 262.261 824.177 259.518Z" fill="white"/>
<path d="M566.763 419.535C569.162 420.288 570.201 420.411 571.715 422.431C572.665 425.101 572.172 426.632 571.767 429.453C569.488 426.412 568.162 424.537 566.264 421.26L566.763 419.535Z" fill="#E9EFF9"/>
</g>
<defs>
<clipPath id="clip0_190_204">
<rect width="972" height="1619" fill="white"/>
</clipPath>
</defs>
</svg>
